<svg width="200" height="200" viewBox="0 0 589 560" fill="none" xmlns="http://www.w3.org/2000/svg">
<path d="M587.77 212.62C586.61 209.413 583.798 207.092 580.427 206.561L387.827 179.018L301.714 4.95798C300.272 1.99318 297.299 0.0829766 294.003 0.000976562C290.655 0.0556646 287.612 1.96578 286.108 4.95798L199.995 179.198L7.76518 207.475C4.46438 208.065 1.73398 210.377 0.604975 213.534C-0.410625 216.799 0.515131 220.354 2.99167 222.713L142.162 358.033L110.4 549.533C109.865 552.877 111.29 556.229 114.072 558.162C115.501 559.381 117.333 560.033 119.212 559.998C120.693 560.006 122.15 559.627 123.435 558.896L294.005 468.193L466.045 558.345C468.896 560.185 472.56 560.185 475.408 558.345C478.154 556.385 479.572 553.052 479.08 549.717L446.217 357.667L585.017 221.797C587.626 219.519 588.697 215.953 587.771 212.617L587.77 212.62ZM430.42 348.85C428.331 350.904 427.37 353.853 427.85 356.744L459.248 534.294L299.138 450.2C296.49 448.829 293.341 448.829 290.693 450.2L130.223 534.661L160.52 356.381V356.377C160.969 353.596 160.008 350.776 157.949 348.85L28.3195 222.53L207.149 196.276C210.06 195.76 212.567 193.932 213.946 191.315L293.997 29.015L374.415 191.135V191.131C375.708 193.709 378.177 195.49 381.029 195.904L560.049 221.607L430.42 348.85Z" fill="white"/>
<path d="M227.35 289.73C235.909 289.777 244.139 286.429 250.229 280.417C256.323 274.402 259.78 266.218 259.846 257.659C259.909 249.101 256.577 240.866 250.573 234.761C244.573 228.656 236.397 225.183 227.839 225.105C219.277 225.023 211.034 228.339 204.921 234.332C198.804 240.32 195.316 248.488 195.218 257.051C195.12 265.652 198.456 273.938 204.487 280.071C210.519 286.207 218.749 289.684 227.35 289.731L227.35 289.73ZM227.35 242.91C231.206 242.863 234.924 244.351 237.682 247.05C240.436 249.749 242.006 253.433 242.038 257.292C242.069 261.148 240.565 264.859 237.854 267.604C235.143 270.35 231.452 271.901 227.596 271.921C223.737 271.936 220.034 270.413 217.299 267.694C214.565 264.971 213.03 261.272 213.03 257.417C213.026 253.601 214.53 249.937 217.209 247.222C219.893 244.507 223.534 242.96 227.35 242.91L227.35 242.91Z" fill="white"/>
<path d="M333.48 257.049C333.48 265.62 336.883 273.838 342.945 279.897C349.004 285.96 357.222 289.362 365.793 289.362C374.364 289.362 382.582 285.96 388.645 279.897C394.704 273.839 398.11 265.62 398.11 257.049C398.11 248.479 394.704 240.256 388.645 234.197C382.583 228.139 374.364 224.732 365.793 224.732C357.223 224.732 349.004 228.139 342.945 234.197C336.883 240.256 333.48 248.478 333.48 257.049ZM380.3 257.049C380.3 260.893 378.769 264.584 376.05 267.303C373.332 270.026 369.64 271.553 365.792 271.553C361.945 271.553 358.257 270.026 355.538 267.303C352.816 264.584 351.288 260.893 351.288 257.049C351.288 253.202 352.816 249.51 355.538 246.791C358.257 244.072 361.945 242.541 365.792 242.541C369.624 242.592 373.289 244.135 375.995 246.842C378.706 249.553 380.249 253.217 380.3 257.049L380.3 257.049Z" fill="white"/>
<path d="M306.12 345.549H302.999C293.921 345.659 284.925 347.272 276.378 350.323C275.952 348.956 275.335 347.659 274.542 346.467L243.327 299.279C241.558 296.967 238.808 295.607 235.89 295.607C232.976 295.607 230.226 296.967 228.456 299.279L197.241 346.467C191.409 355.253 188.991 365.865 190.448 376.311C191.905 386.752 197.14 396.299 205.155 403.151C213.175 409.999 223.421 413.674 233.964 413.483H238.921C246.745 413.581 254.441 411.507 261.151 407.487C267.862 403.464 273.323 397.659 276.928 390.717C280.705 383.491 282.362 375.342 281.702 367.217C288.53 364.737 295.733 363.432 302.999 363.358H306.12C328.729 363.276 349.854 374.6 362.304 393.471C363.995 395.975 366.811 397.486 369.831 397.51C371.53 397.471 373.183 396.963 374.604 396.041C376.593 394.764 377.987 392.74 378.468 390.428C378.952 388.115 378.487 385.705 377.175 383.74C361.425 359.865 334.722 345.513 306.12 345.549L306.12 345.549ZM260.952 382.272C258.819 386.354 255.597 389.769 251.644 392.132C247.691 394.499 243.159 395.726 238.554 395.675H233.229C227.065 395.698 221.1 393.468 216.459 389.409C211.818 385.351 208.819 379.737 208.018 373.624C207.217 367.511 208.674 361.315 212.116 356.198L235.983 320.393L259.667 356.198C262.288 359.995 263.796 364.448 264.022 369.053C264.249 373.659 263.186 378.237 260.952 382.272L260.952 382.272Z" fill="white"/>
</svg>
