<svg width="100" height="70" viewBox="0 0 68 12" fill="none" xmlns="http://www.w3.org/2000/svg">
<path d="M21.1649 11.3984V0.820313H21.9688V2.48437C22.0637 2.41066 22.1514 2.33235 22.2313 2.25C22.5598 1.76294 23.0758 1.35285 23.719 1.06781C24.3621 0.782766 25.1057 0.634581 25.8625 0.640624C27.6945 0.601561 29.182 1.08594 30.057 2.25C30.6138 2.97313 30.9202 3.78093 30.9506 4.60592C30.9811 5.4309 30.7347 6.24911 30.232 6.99219C29.4172 8.29687 27.4047 8.94531 25.25 8.70703C24.5795 8.66623 23.9339 8.50617 23.3723 8.24143C22.8106 7.97669 22.3506 7.6157 22.0344 7.19141V11.3984H21.1649ZM21.9688 4.5625C22.0399 5.07812 22.0672 5.44531 22.1492 5.80469C22.4664 7.21875 23.6367 8.05859 25.4742 8.21094C26.337 8.31224 27.2223 8.19669 27.9792 7.884C28.7361 7.5713 29.3177 7.0808 29.625 6.49609C29.9781 5.89467 30.1481 5.24647 30.1235 4.59454C30.099 3.94261 29.8806 3.30186 29.4828 2.71484C29.1548 2.19078 28.597 1.75718 27.8936 1.47953C27.1901 1.20189 26.3793 1.09527 25.5836 1.17578C24.8365 1.21444 24.1248 1.41843 23.5476 1.75936C22.9703 2.1003 22.5561 2.56125 22.3625 3.07812C22.1912 3.56707 22.0598 4.06269 21.9688 4.5625ZM47.3492 6C47.2274 6.74477 46.7311 7.4326 45.9525 7.93557C45.1739 8.43853 44.1661 8.7224 43.1164 8.73437C39.7477 8.85547 38.1672 7.25781 37.9156 5.41406C37.741 4.41281 37.9686 3.39673 38.5719 2.48437C38.992 1.85855 39.68 1.34446 40.5364 1.0165C41.3927 0.688542 42.3729 0.56374 43.3352 0.660156C44.25 0.715538 45.1172 0.975077 45.8141 1.40202C46.5109 1.82897 47.0021 2.40168 47.218 3.03906C47.3891 3.61957 47.5151 4.2064 47.5953 4.79687H38.7414C38.5774 6.46875 39.8352 7.8125 41.618 8.13672C43.8383 8.52734 45.736 7.83984 46.425 6.33203C46.5781 5.94531 46.857 5.89062 47.3492 6ZM38.7414 4.26172H46.6547C46.6055 2.48047 45.0524 1.19141 42.9469 1.17187C40.5625 1.14453 38.8453 2.38672 38.7414 4.26172ZM48.9789 6.03906H49.7555C49.7842 6.44721 49.9698 6.84181 50.2921 7.17949C50.6143 7.51717 51.0607 7.78486 51.582 7.95312C52.2368 8.16357 52.9495 8.26584 53.6672 8.25232C54.3849 8.23879 55.0891 8.10982 55.7274 7.875C56.0752 7.76299 56.3666 7.57748 56.5621 7.34348C56.7577 7.10947 56.8481 6.83825 56.8211 6.5664C56.8411 6.30422 56.7409 6.04453 56.5356 5.8267C56.3303 5.60888 56.0312 5.44481 55.6836 5.35937C54.8305 5.13281 53.9227 5.00781 53.0531 4.80859C52.1484 4.62456 51.2638 4.39348 50.4063 4.11719C49.0063 3.62891 48.9188 1.72656 50.5047 1.125C51.3168 0.79767 52.2307 0.620818 53.163 0.610583C54.0954 0.600348 55.0164 0.757056 55.8422 1.06641C56.3424 1.26388 56.7465 1.56558 57.0005 1.93128C57.2546 2.29698 57.3465 2.7093 57.2641 3.11328H56.5969C56.5969 3.08984 56.5367 3.07031 56.5367 3.04687C56.4547 1.52734 54.6719 1.05859 52.7578 1.19141C52.1864 1.24175 51.6315 1.362 51.1172 1.54687C50.8083 1.64779 50.5508 1.81473 50.3803 2.02465C50.2099 2.23456 50.1349 2.47708 50.1656 2.71875C50.1666 2.96052 50.2722 3.19617 50.468 3.39338C50.6638 3.5906 50.9403 3.73972 51.2594 3.82031C52.1016 4.03906 52.982 4.17969 53.8461 4.35156C54.5406 4.48828 55.2625 4.57812 55.9352 4.74219C56.4099 4.85335 56.8262 5.06488 57.129 5.34878C57.4317 5.63269 57.6066 5.97556 57.6305 6.33203C57.7116 6.7226 57.6185 7.12151 57.3642 7.47211C57.11 7.82272 56.7075 8.10719 56.2141 8.28515C54.3875 9.02344 51.3797 8.82812 50.0399 7.89453C49.7003 7.65059 49.4317 7.36104 49.2496 7.04258C49.0675 6.72412 48.9755 6.38305 48.9789 6.03906ZM67.4742 3.11328H66.7469C66.7469 3.04297 66.7086 2.98047 66.6977 2.92187C66.6859 2.53244 66.4871 2.15773 66.1347 1.86048C65.7823 1.56324 65.2975 1.3615 64.7617 1.28906C63.7507 1.08187 62.6722 1.11894 61.6938 1.39453C61.307 1.47374 60.9665 1.64017 60.723 1.86898C60.4796 2.09778 60.3463 2.37669 60.343 2.66406C60.3294 2.94629 60.4525 3.22322 60.6917 3.44811C60.9308 3.67299 61.2712 3.83205 61.6555 3.89844C62.7492 4.14062 63.8703 4.28906 64.9805 4.50781C65.3402 4.56949 65.6945 4.64645 66.0414 4.73828C66.5594 4.87066 67.0095 5.11159 67.3328 5.42957C67.6561 5.74756 67.8376 6.12781 67.8535 6.52063C67.8695 6.91345 67.7192 7.30058 67.4222 7.63141C67.1253 7.96224 66.6955 8.22139 66.1891 8.375C65.4173 8.62532 64.5809 8.75774 63.7333 8.7638C62.8858 8.76985 62.0458 8.6494 61.2672 8.41015C60.6269 8.2129 60.0866 7.88028 59.719 7.45706C59.3513 7.03384 59.174 6.54034 59.2109 6.04297H59.5172H59.9219C60.0534 6.49621 60.3376 6.91971 60.7499 7.27681C61.1622 7.63391 61.6902 7.91384 62.288 8.09236C62.8859 8.27088 63.5357 8.34261 64.1812 8.30133C64.8266 8.26005 65.4482 8.10701 65.9922 7.85547C66.3236 7.7325 66.5986 7.54422 66.7847 7.31298C66.9708 7.08173 67.0602 6.81721 67.0422 6.55078C67.0587 6.28844 66.9549 6.02942 66.7467 5.813C66.5385 5.59659 66.2371 5.43458 65.8883 5.35156C65.0352 5.125 64.1274 5.0039 63.2578 4.80469C62.3479 4.6235 61.4578 4.39502 60.5945 4.12109C59.2274 3.64062 59.118 1.75391 60.6766 1.15234C61.4987 0.8113 62.4305 0.628098 63.3812 0.620569C64.3318 0.613039 65.269 0.781437 66.1016 1.10937C66.5777 1.3124 66.9609 1.6099 67.2047 1.96568C67.4484 2.32146 67.542 2.72017 67.4742 3.11328ZM19.8359 8.54297C19.5496 8.62041 19.2335 8.62025 18.9473 8.54252C18.6612 8.46479 18.4248 8.31486 18.2828 8.12109C17.3914 7.16797 16.407 6.25781 15.461 5.32812L15.0508 4.9375C13.9242 6.01562 12.7977 7.05078 11.7695 8.125C11.6356 8.31019 11.412 8.45429 11.1403 8.53046C10.8687 8.60664 10.5675 8.60969 10.293 8.53906L14.5203 4.48828L10.5883 0.828124C10.8713 0.755124 11.181 0.754123 11.4649 0.82529C11.7489 0.896456 11.9898 1.03543 12.1469 1.21875C13.0602 2.17187 14.0719 3.08203 15.0781 4.04687C16.0899 3.08984 17.0906 2.17578 18.0258 1.23047C18.1605 1.04829 18.3842 0.907822 18.6545 0.835798C18.9247 0.763773 19.2226 0.765213 19.4914 0.839844L17.9656 2.28516C17.282 2.92969 16.6094 3.57812 15.8984 4.20703C15.8412 4.24367 15.7953 4.28852 15.764 4.33867C15.7326 4.38881 15.7164 4.44312 15.7164 4.49805C15.7164 4.55297 15.7326 4.60728 15.764 4.65742C15.7953 4.70757 15.8412 4.75242 15.8984 4.78906C17.2055 6.02734 18.5016 7.26953 19.8359 8.54297ZM37.7844 0.789062V1.33594C37.2313 1.31002 36.6767 1.36724 36.1565 1.50389C35.6362 1.64055 35.1619 1.8536 34.764 2.1293C34.3662 2.405 34.0537 2.73722 33.8468 3.10452C33.6398 3.47182 33.543 3.86603 33.5625 4.26172C33.5625 5.54818 33.5625 6.83463 33.5625 8.12109C33.5625 8.25781 33.5625 8.39453 33.5625 8.55859H32.7805V0.820313H33.5461V2.40625C34.4922 1.25 35.9524 0.820312 37.7844 0.789062ZM0.164856 4.4375C0.2797 4.04687 0.350793 3.62109 0.509387 3.22266C1.45548 0.820312 5.31095 -0.179687 7.96329 1.30859C9.51642 2.17969 9.9047 3.41406 9.82814 4.80469H1.07814C0.93595 7.28906 3.44611 8.78906 6.65626 8.02344C7.177 7.89039 7.64315 7.66681 8.01264 7.37288C8.38213 7.07895 8.64334 6.72392 8.77267 6.33984C8.9422 5.94922 9.21564 5.88281 9.73517 5.99609C9.64959 6.47164 9.41419 6.92715 9.04667 7.32836C8.67916 7.72957 8.18908 8.06605 7.61329 8.3125C6.66195 8.68409 5.57047 8.83131 4.49493 8.73309C3.41938 8.63486 2.41486 8.29623 1.62501 7.76562C0.843614 7.13806 0.37114 6.34512 0.2797 5.50781C0.2797 5.375 0.208606 5.24219 0.170325 5.11719C0.166679 4.88542 0.164856 4.65885 0.164856 4.4375ZM1.08907 4.26953H9.00236C8.95314 2.46875 7.36173 1.19141 5.23986 1.17969C2.87736 1.15625 1.18751 2.40625 1.08361 4.26172L1.08907 4.26953Z" fill="white"/>
</svg>
