<svg width="700" height="700" viewBox="0 0 700 700" fill="none" xmlns="http://www.w3.org/2000/svg">
<rect width="700" height="700" rx="10" fill="white"/>
<path d="M80.1956 147.338H373.978C376.413 147.338 378.526 145.536 379.083 142.982C379.645 140.434 378.503 137.799 376.324 136.629L348.703 121.75C340.417 117.264 333.69 110.017 329.527 101.09C325.573 92.5708 318.06 86.6159 309.334 85.0914C300.603 83.5623 291.731 86.6508 285.477 93.3882C284.222 94.7407 282.466 95.4169 280.7 95.2303C278.929 95.0385 277.337 94.0039 276.348 92.4142L275.336 90.7841V90.7791C266.624 76.6633 251.926 68.1855 236.188 68.2049C222.211 68.2402 209.058 75.3308 200.645 87.3567L194.027 96.8697L194.022 96.8647C191.642 100.286 188.003 102.426 184.045 102.729C180.087 103.032 176.199 101.467 173.393 98.4443C168.869 93.544 162.709 90.7936 156.292 90.8138H153.753C149.28 90.8138 144.891 92.1513 141.078 94.6796L77.4416 136.869C75.4414 138.197 74.5047 140.791 75.1417 143.223C75.7834 145.661 77.849 147.341 80.1957 147.336L80.1956 147.338Z" fill="black"/>
<path d="M467.34 143.229C467.978 145.662 470.038 147.342 472.385 147.342H631.159C633.595 147.342 635.708 145.541 636.265 142.987C636.827 140.438 635.684 137.804 633.506 136.633L618.578 128.594C614.564 126.419 611.309 122.911 609.29 118.586C606.807 113.232 602.086 109.492 596.606 108.533C591.121 107.574 585.547 109.517 581.617 113.752C581.453 113.933 581.214 114.024 580.975 113.999C580.736 113.979 580.521 113.837 580.394 113.62L579.851 112.737H579.846C574.689 104.385 565.995 99.3682 556.684 99.3785C548.37 99.3987 540.548 103.618 535.54 110.769L531.962 115.906H531.966C531.1 117.158 529.77 117.935 528.327 118.046C526.884 118.157 525.47 117.587 524.448 116.487C521.549 113.348 517.61 111.586 513.502 111.602H512.134C509.268 111.602 506.457 112.455 504.017 114.075L469.626 136.875C467.631 138.202 466.694 140.796 467.336 143.229L467.34 143.229Z" fill="black"/>
<path d="M419.148 391.994C418.244 390.131 416.455 388.966 414.502 388.966H162.688C160.735 388.966 158.946 390.131 158.042 391.994L42.6275 629.389C41.775 631.14 41.8359 633.245 42.7868 634.94C43.7376 636.631 45.4379 637.666 47.2741 637.666H437.477L440.282 661.799C440.601 664.635 442.835 666.765 445.486 666.76C446.03 666.755 446.568 666.664 447.088 666.493L531.513 637.398C532.988 636.888 534.178 635.702 534.763 634.153C535.354 632.609 535.274 630.862 534.553 629.384L419.148 391.994ZM409.256 626.366H307.757L409.256 417.6V626.366ZM449.913 653.653L423.316 424.927L522.374 628.68L449.913 653.653Z" fill="black"/>
<path d="M621.39 266.558C622.973 266.594 624.491 265.887 625.554 264.621C627.231 262.536 627.269 259.448 625.643 257.318L556.395 166.639C555.397 165.332 553.912 164.575 552.343 164.575C550.774 164.575 549.289 165.332 548.291 166.639L479.043 257.318C477.417 259.448 477.455 262.536 479.132 264.621C480.195 265.887 481.713 266.594 483.296 266.558H514.075L456.026 339.842C454.349 341.946 454.344 345.055 456.012 347.169C457.066 348.471 458.602 349.198 460.209 349.168H493.339L452.667 403.949L411.996 349.163H445.131C446.733 349.198 448.269 348.471 449.328 347.169C450.995 345.055 450.986 341.946 449.314 339.836L391.265 266.553H422.039V266.558C423.622 266.589 425.144 265.882 426.203 264.62C427.88 262.536 427.917 259.448 426.292 257.318L357.043 166.639C356.046 165.332 354.561 164.575 352.992 164.575C351.423 164.575 349.938 165.332 348.94 166.639L279.691 257.318C278.066 259.448 278.103 262.536 279.78 264.62C280.844 265.887 282.361 266.594 283.944 266.558H314.723L256.674 339.841C254.997 341.946 254.993 345.055 256.66 347.169C257.714 348.471 259.251 349.198 260.857 349.168H293.987L279.65 368.481C278.385 370.177 278.141 372.503 279.013 374.461C279.888 376.419 281.725 377.666 283.743 377.666H347.746V185.489C347.746 182.365 350.093 179.837 352.992 179.837C355.892 179.837 358.238 182.365 358.238 185.489V377.666H420.85C422.798 377.666 424.588 378.832 425.492 380.689L452.771 436.809V436.814C453.68 438.676 455.465 439.842 457.418 439.842H547.098V513.08C547.051 516.052 549.094 518.58 551.834 518.949C553.305 519.105 554.771 518.58 555.867 517.511C556.963 516.436 557.591 514.917 557.591 513.322V439.842H667.759C670.054 439.842 672.087 438.237 672.771 435.876C673.277 434.003 672.883 431.985 671.721 430.491L611.349 349.164H644.484C646.086 349.199 647.622 348.473 648.681 347.171C650.348 345.056 650.339 341.947 648.666 339.838L590.618 266.555L621.39 266.558ZM557.589 428.543H547.097V185.502C547.097 182.378 549.444 179.849 552.343 179.849C555.243 179.849 557.589 182.378 557.589 185.502V428.543Z" fill="black"/>
<path d="M124.419 436.811L148.401 387.46V185.49C148.401 182.366 150.748 179.838 153.647 179.838C156.547 179.838 158.893 182.366 158.893 185.49V377.667H222.896C224.915 377.667 226.751 376.421 227.627 374.463C228.498 372.505 228.254 370.178 226.99 368.482L212.652 349.164H245.787C247.389 349.199 248.925 348.472 249.984 347.17C251.651 345.056 251.642 341.947 249.97 339.837L191.921 266.554H222.695V266.559C224.278 266.59 225.8 265.883 226.859 264.621C228.536 262.537 228.573 259.449 226.948 257.319L157.699 166.64C156.702 165.333 155.217 164.576 153.648 164.576C152.078 164.576 150.594 165.333 149.596 166.64L80.3472 257.319C78.7219 259.449 78.7594 262.537 80.4362 264.621C81.4995 265.888 83.0171 266.595 84.6004 266.559H115.379L57.3302 339.837C55.6534 341.947 55.6487 345.056 57.3162 347.17C58.3701 348.472 59.9065 349.199 61.5131 349.164H94.6433L34.2657 430.49C33.104 431.984 32.7105 434.003 33.2164 435.875C33.905 438.237 35.9378 439.842 38.233 439.842H119.768C121.721 439.842 123.51 438.676 124.419 436.814L124.419 436.811Z" fill="black"/>
<path d="M645.72 628.627C662.85 614.712 672.944 592.957 673 569.843V568.258C673.005 564.241 671.834 560.325 669.651 557.065C667.473 553.805 664.395 551.372 660.854 550.1L651.636 546.795C649.636 546.073 648.02 544.453 647.214 542.354C646.404 540.254 646.484 537.878 647.425 535.844C649.097 532.255 649.674 528.188 649.074 524.221C648.474 520.254 646.732 516.596 644.095 513.759C635.706 504.756 630.998 492.518 631.031 479.76V468.103C631.031 465.817 629.752 463.752 627.794 462.874C625.831 462.001 623.574 462.486 622.075 464.106L596.552 491.605V491.6C591.741 496.757 589.043 503.777 589.062 511.09C589.076 517.252 585.844 522.889 580.72 525.63C576.912 527.663 573.708 530.807 571.474 534.703C569.239 538.599 568.064 543.091 568.078 547.673C568.087 548.047 567.904 548.395 567.605 548.577C567.319 548.789 566.949 548.804 566.649 548.617L554.686 542.172V542.177C553.061 541.304 551.131 541.4 549.585 542.43C548.039 543.459 547.098 545.276 547.093 547.234V579.776C547.098 591.439 550.077 602.88 555.707 612.837C561.337 622.799 569.399 630.903 579.015 636.259L559.249 656.152H559.254C558.177 657.161 557.53 658.595 557.455 660.129C557.38 661.658 557.891 663.157 558.861 664.277C559.835 665.397 561.189 666.048 562.613 666.069C564.036 666.094 565.409 665.493 566.411 664.408L589.808 640.88C590.886 641.203 591.986 641.501 593.087 641.769L589.167 662.202C588.586 665.255 590.413 668.238 593.246 668.869C593.598 668.955 593.954 668.995 594.31 669C596.802 669 598.952 667.108 599.453 664.478L603.519 643.252C604.371 643.292 605.224 643.322 606.076 643.322C611.744 643.307 617.388 642.489 622.864 640.89L642.929 664.134C643.922 665.28 645.314 665.931 646.77 665.931C648.096 665.936 649.37 665.396 650.34 664.417C652.461 662.292 652.583 658.714 650.611 656.423L633.548 636.67L633.553 636.665C637.482 634.672 641.22 632.255 644.701 629.444L645.72 628.627ZM632.961 604.252L627.925 606.694H627.921C625.742 607.754 623.489 608.627 621.18 609.308L629.363 601.072C630.441 600.063 631.087 598.63 631.162 597.1C631.237 595.566 630.726 594.067 629.757 592.947C628.782 591.827 627.429 591.181 626.005 591.155C624.581 591.13 623.208 591.731 622.206 592.821L611.02 604.07L615.189 582.294C615.775 579.236 613.948 576.243 611.11 575.607C608.271 574.976 605.493 576.945 604.903 580.003L601.217 599.25L592.022 588.597H592.027C590.05 586.311 586.724 586.179 584.603 588.314C582.481 590.444 582.364 594.022 584.34 596.308L595.648 609.379C595.629 609.384 595.61 609.379 595.591 609.369C589.32 607.456 584.073 602.798 581.141 596.52C579.455 592.952 578.574 589.01 578.569 585.003V576.863V576.868C586.237 577.549 593.779 574.471 599.104 568.491C604.425 562.505 606.964 554.258 606.008 546.033C605.371 540.552 606.735 535.021 609.812 530.6L612.988 526.063L616.543 540.633H616.538C619.498 552.679 624.862 563.877 632.249 573.461C632.342 573.587 632.46 573.713 632.563 573.845L637.247 578.891V578.886C640.633 582.52 642.146 587.718 641.289 592.785C640.432 597.847 637.317 602.136 632.961 604.251L632.961 604.252Z" fill="black"/>
<path d="M426.439 145.916C445.194 145.901 462.778 136.075 473.602 119.572C474.848 117.665 474.881 115.126 473.682 113.183C472.478 111.24 470.295 110.292 468.178 110.796C454.197 114.137 439.564 110.463 428.387 100.809C417.216 91.1544 410.71 76.5641 410.7 61.1317C410.681 50.6347 413.698 40.3895 419.328 31.82C420.579 29.9124 420.607 27.3739 419.408 25.431C418.209 23.483 416.021 22.5392 413.904 23.0438C395.234 27.5051 379.828 41.6505 372.768 60.8036C365.714 79.9554 367.925 101.636 378.675 118.679C389.42 135.726 407.313 145.926 426.438 145.916L426.439 145.916Z" fill="black"/>
</svg>
