<svg width="700" height="700" viewBox="0 0 700 700" fill="none" xmlns="http://www.w3.org/2000/svg">
<rect width="700" height="700" rx="10" fill="white"/>
<path d="M122.5 119.22H367.5C369.531 119.22 371.293 117.825 371.758 115.849C372.227 113.876 371.273 111.837 369.457 110.931L346.422 99.4149C339.512 95.9422 333.902 90.3329 330.43 83.4229C327.133 76.8291 320.867 72.2199 313.59 71.0399C306.309 69.8563 298.91 72.2469 293.695 77.4618C292.648 78.5087 291.183 79.0321 289.711 78.8876C288.234 78.7392 286.906 77.9384 286.082 76.7079L285.238 75.4462V75.4423C277.972 64.5163 265.715 57.9543 252.59 57.9693C240.934 57.9966 229.965 63.4849 222.949 72.7933L217.429 80.1566L217.426 80.1527C215.441 82.8011 212.406 84.4574 209.105 84.6918C205.804 84.9262 202.562 83.7152 200.222 81.3754C196.449 77.5824 191.312 75.4535 185.96 75.4692H183.843C180.113 75.4692 176.453 76.5044 173.273 78.4614L120.203 111.117C118.535 112.145 117.754 114.153 118.285 116.035C118.82 117.922 120.543 119.223 122.5 119.219L122.5 119.22Z" fill="black"/>
<path d="M445.36 116.04C445.891 117.923 447.61 119.224 449.567 119.224H581.977C584.008 119.224 585.77 117.829 586.235 115.852C586.704 113.88 585.75 111.841 583.934 110.934L571.485 104.712C568.137 103.028 565.422 100.313 563.739 96.9657C561.669 92.8212 557.731 89.9266 553.161 89.1845C548.587 88.4423 543.938 89.9462 540.661 93.2236C540.524 93.3642 540.325 93.4345 540.126 93.415C539.927 93.3994 539.747 93.29 539.641 93.122L539.188 92.4385H539.184C534.884 85.9737 527.633 82.0904 519.868 82.0984C512.935 82.1141 506.411 85.3796 502.235 90.9148L499.251 94.8914H499.255C498.532 95.8602 497.423 96.4618 496.22 96.5477C495.017 96.6336 493.837 96.1922 492.985 95.3406C490.567 92.9109 487.282 91.5476 483.856 91.5594H482.716C480.325 91.5594 477.981 92.2196 475.946 93.4735L447.266 111.122C445.602 112.149 444.821 114.157 445.356 116.04L445.36 116.04Z" fill="black"/>
<path d="M405.17 308.59C404.416 307.149 402.924 306.246 401.295 306.246H191.295C189.666 306.246 188.174 307.149 187.42 308.59L91.17 492.34C90.4591 493.695 90.5099 495.324 91.3028 496.637C92.0958 497.946 93.5137 498.746 95.045 498.746H420.455L422.795 517.426C423.06 519.622 424.924 521.27 427.135 521.266C427.588 521.262 428.037 521.192 428.471 521.059L498.876 498.539C500.107 498.145 501.099 497.227 501.587 496.027C502.08 494.832 502.013 493.48 501.412 492.336L405.17 308.59ZM396.92 490H312.275L396.92 328.41V490ZM430.826 511.121L408.646 334.081L491.255 491.791L430.826 511.121Z" fill="black"/>
<path d="M573.83 211.5C575.15 211.527 576.416 210.98 577.303 210C578.701 208.387 578.732 205.996 577.377 204.348L519.627 134.16C518.795 133.148 517.557 132.562 516.248 132.562C514.939 132.562 513.701 133.148 512.869 134.16L455.119 204.348C453.764 205.996 453.795 208.387 455.193 210C456.08 210.98 457.346 211.527 458.666 211.5H484.334L435.924 268.223C434.526 269.852 434.522 272.258 435.912 273.895C436.791 274.903 438.073 275.465 439.412 275.442H467.041L433.123 317.844L399.205 275.438H426.838C428.174 275.465 429.456 274.903 430.338 273.895C431.729 272.258 431.721 269.852 430.327 268.219L381.917 211.496H407.581V211.5C408.901 211.523 410.17 210.976 411.053 210C412.452 208.387 412.483 205.996 411.128 204.348L353.378 134.16C352.545 133.148 351.307 132.562 349.999 132.562C348.69 132.562 347.452 133.148 346.62 134.16L288.87 204.348C287.514 205.996 287.546 208.387 288.944 210C289.831 210.98 291.096 211.527 292.417 211.5H318.085L269.675 268.223C268.276 269.852 268.272 272.258 269.663 273.895C270.542 274.903 271.823 275.465 273.163 275.442H300.792L288.835 290.391C287.78 291.703 287.577 293.504 288.304 295.02C289.034 296.535 290.565 297.5 292.249 297.5H345.624V148.75C345.624 146.332 347.581 144.375 349.999 144.375C352.417 144.375 354.374 146.332 354.374 148.75V297.5H406.589C408.214 297.5 409.706 298.402 410.46 299.84L433.21 343.278V343.282C433.968 344.723 435.456 345.626 437.085 345.626H511.874V402.314C511.835 404.614 513.538 406.571 515.823 406.857C517.05 406.978 518.272 406.571 519.187 405.743C520.101 404.911 520.624 403.736 520.624 402.501V345.626H612.499C614.413 345.626 616.108 344.384 616.679 342.556C617.101 341.107 616.773 339.544 615.804 338.388L565.456 275.439H593.089C594.425 275.466 595.706 274.904 596.589 273.896C597.979 272.259 597.972 269.853 596.577 268.22L548.167 211.497L573.83 211.5ZM520.623 336.88H511.873V148.76C511.873 146.342 513.83 144.385 516.248 144.385C518.666 144.385 520.623 146.342 520.623 148.76V336.88Z" fill="black"/>
<path d="M159.38 343.28L179.38 305.081V148.751C179.38 146.333 181.337 144.376 183.755 144.376C186.173 144.376 188.13 146.333 188.13 148.751V297.501H241.505C243.189 297.501 244.72 296.536 245.45 295.021C246.177 293.505 245.974 291.704 244.919 290.392L232.962 275.439H260.595C261.931 275.466 263.212 274.903 264.095 273.896C265.486 272.259 265.478 269.853 264.083 268.22L215.673 211.497H241.337V211.501C242.658 211.524 243.927 210.977 244.81 210.001C246.208 208.387 246.24 205.997 244.884 204.348L187.134 134.16C186.302 133.149 185.064 132.563 183.755 132.563C182.447 132.563 181.208 133.149 180.376 134.16L122.626 204.348C121.271 205.997 121.302 208.388 122.701 210.001C123.587 210.981 124.853 211.528 126.173 211.501H151.841L103.431 268.22C102.033 269.852 102.029 272.259 103.42 273.896C104.299 274.903 105.58 275.466 106.92 275.439H134.549L84.1966 338.388C83.2279 339.544 82.8997 341.106 83.3216 342.556C83.8959 344.384 85.5911 345.626 87.5052 345.626H155.501C157.13 345.626 158.622 344.723 159.38 343.282L159.38 343.28Z" fill="black"/>
<path d="M594.12 491.75C608.405 480.98 616.823 464.141 616.87 446.25V445.023C616.874 441.914 615.897 438.883 614.077 436.359C612.261 433.836 609.694 431.953 606.741 430.969L599.054 428.41C597.386 427.852 596.038 426.598 595.366 424.973C594.69 423.348 594.757 421.508 595.542 419.934C596.936 417.156 597.417 414.008 596.917 410.937C596.417 407.867 594.964 405.035 592.765 402.84C585.768 395.871 581.843 386.399 581.87 376.524V367.5C581.87 365.731 580.803 364.133 579.17 363.453C577.534 362.778 575.651 363.153 574.401 364.407L553.116 385.692V385.688C549.104 389.68 546.854 395.113 546.87 400.774C546.881 405.543 544.186 409.906 539.913 412.028C536.737 413.602 534.065 416.035 532.202 419.051C530.339 422.067 529.358 425.543 529.37 429.09C529.378 429.379 529.225 429.649 528.975 429.789C528.737 429.953 528.428 429.965 528.178 429.82L518.202 424.832V424.836C516.846 424.16 515.237 424.235 513.948 425.031C512.659 425.828 511.874 427.235 511.87 428.75V453.938C511.874 462.966 514.358 471.821 519.053 479.528C523.749 487.239 530.471 493.512 538.491 497.657L522.007 513.055H522.011C521.113 513.836 520.574 514.946 520.511 516.133C520.449 517.317 520.875 518.477 521.683 519.344C522.496 520.211 523.625 520.715 524.812 520.731C526 520.75 527.144 520.286 527.98 519.446L547.492 501.235C548.391 501.485 549.309 501.715 550.227 501.922L546.957 517.738C546.473 520.102 547.996 522.41 550.359 522.898C550.652 522.965 550.949 522.996 551.246 523C553.324 523 555.117 521.535 555.535 519.5L558.926 503.07C559.637 503.101 560.348 503.125 561.059 503.125C565.785 503.113 570.492 502.48 575.059 501.242L591.793 519.234C592.621 520.121 593.781 520.624 594.996 520.624C596.101 520.628 597.164 520.21 597.972 519.453C599.742 517.808 599.843 515.038 598.199 513.265L583.969 497.976L583.973 497.972C587.25 496.429 590.367 494.558 593.27 492.382L594.12 491.75ZM583.479 472.883L579.28 474.774H579.276C577.459 475.594 575.581 476.27 573.655 476.797L580.479 470.422C581.377 469.641 581.917 468.531 581.979 467.348C582.042 466.16 581.616 465 580.807 464.133C579.995 463.266 578.866 462.766 577.678 462.746C576.491 462.727 575.346 463.192 574.51 464.035L565.182 472.742L568.659 455.887C569.147 453.52 567.624 451.204 565.256 450.712C562.889 450.223 560.573 451.747 560.081 454.114L557.006 469.012L549.338 460.766H549.342C547.694 458.996 544.92 458.895 543.151 460.547C541.381 462.195 541.284 464.965 542.932 466.735L552.362 476.852C552.346 476.855 552.331 476.852 552.315 476.844C547.085 475.363 542.709 471.758 540.264 466.898C538.858 464.137 538.123 461.086 538.119 457.984V451.684V451.687C544.514 452.215 550.803 449.832 555.244 445.203C559.682 440.57 561.799 434.187 561.002 427.82C560.471 423.578 561.608 419.297 564.174 415.875L566.823 412.363L569.787 423.64H569.783C572.252 432.965 576.725 441.632 582.885 449.05C582.964 449.148 583.061 449.246 583.147 449.347L587.053 453.253V453.25C589.878 456.062 591.139 460.085 590.424 464.008C589.71 467.926 587.112 471.246 583.479 472.883L583.479 472.883Z" fill="black"/>
<path d="M411.25 118.12C426.891 118.108 441.555 110.503 450.582 97.729C451.621 96.2524 451.648 94.2876 450.648 92.7837C449.645 91.2798 447.824 90.5454 446.059 90.936C434.399 93.5219 422.196 90.6782 412.875 83.2055C403.558 75.7328 398.133 64.4395 398.125 52.4945C398.109 44.3695 400.625 36.4395 405.32 29.8065C406.363 28.3299 406.386 26.3651 405.386 24.8612C404.386 23.3534 402.562 22.6229 400.797 23.0135C385.227 26.4666 372.379 37.4155 366.492 52.2405C360.609 67.0645 362.452 83.8455 371.417 97.0375C380.378 110.233 395.3 118.128 411.249 118.12L411.25 118.12Z" fill="black"/>
</svg>
