<svg width="727" height="422" viewBox="0 0 727 422" fill="none" xmlns="http://www.w3.org/2000/svg">
<path d="M555.974 4.59998C554.641 1.77108 552.004 0 549.124 0H177.885C175.005 0 172.367 1.77096 171.035 4.59998L0.883303 365.229C-0.373501 367.89 -0.283727 371.087 1.11809 373.662C2.51991 376.231 5.02654 377.802 7.73358 377.802H582.995L587.131 414.464C587.601 418.772 590.895 422.008 594.803 422C595.604 421.992 596.399 421.854 597.165 421.594L721.629 377.396C723.804 376.621 725.558 374.82 726.421 372.466C727.292 370.12 727.174 367.468 726.111 365.221L555.974 4.59998ZM541.39 360.637H391.754L541.39 43.4989V360.637ZM601.329 402.089L562.119 54.6288L708.156 364.152L601.329 402.089Z" fill="#A36F23"/>
</svg>

