<svg width="25" height="50" viewBox="0 0 46 46" fill="none" xmlns="http://www.w3.org/2000/svg">
<path d="M41.9385 0.804016H3.58702C1.75052 0.804016 0.262024 2.24702 0.262024 4.02802V42.5785C0.262024 44.3595 1.75102 45.804 3.58702 45.804H41.9385C43.775 45.804 45.2615 44.359 45.2615 42.5785V4.02802C45.2615 2.24752 43.775 0.804016 41.9385 0.804016ZM13.9045 38.472H7.10552V18.155H13.9045V38.472ZM10.5055 15.3795H10.46C8.18002 15.3795 6.70202 13.82 6.70202 11.868C6.70202 9.87652 8.22352 8.35952 10.5485 8.35952C12.874 8.35952 14.3045 9.87602 14.3495 11.868C14.3495 13.8205 12.8745 15.3795 10.5055 15.3795ZM38.4135 38.472H31.6165V27.602C31.6165 24.87 30.6315 23.0065 28.1735 23.0065C26.293 23.0065 25.177 24.264 24.687 25.4775C24.505 25.9115 24.4605 26.5175 24.4605 27.1235V38.4715H17.6645C17.6645 38.4715 17.7535 20.06 17.6645 18.1545H24.461V21.035C25.3635 19.651 26.9755 17.6765 30.5855 17.6765C35.059 17.6765 38.4135 20.5785 38.4135 26.822V38.472ZM24.417 21.0995C24.429 21.0805 24.445 21.0575 24.461 21.0355V21.0995H24.417Z" fill="white"/>
</svg>
