<svg width="40" height="50" viewBox="0 0 100 100" fill="none" xmlns="http://www.w3.org/2000/svg">
<path d="M87.877 5.60797H11.174C7.50099 5.60797 4.52399 8.49397 4.52399 12.056V89.157C4.52399 92.719 7.50199 95.608 11.174 95.608H87.877C91.55 95.608 94.523 92.718 94.523 89.157V12.056C94.523 8.49497 91.55 5.60797 87.877 5.60797V5.60797ZM31.809 80.944H18.211V40.31H31.809V80.944V80.944ZM25.011 34.759H24.92C20.36 34.759 17.404 31.64 17.404 27.736C17.404 23.753 20.447 20.719 25.097 20.719C29.748 20.719 32.609 23.752 32.699 27.736C32.699 31.641 29.749 34.759 25.011 34.759V34.759ZM80.827 80.944H67.233V59.204C67.233 53.74 65.263 50.013 60.347 50.013C56.586 50.013 54.354 52.528 53.374 54.955C53.01 55.823 52.921 57.035 52.921 58.247V80.943H39.329C39.329 80.943 39.507 44.12 39.329 40.309H52.922V46.07C54.727 43.302 57.951 39.353 65.171 39.353C74.118 39.353 80.827 45.157 80.827 57.644V80.944V80.944ZM52.834 46.199C52.858 46.161 52.89 46.115 52.922 46.071V46.199H52.834Z" fill="black"/>
</svg>
