<svg width="50" height="50" viewBox="0 0 534 501" fill="none" xmlns="http://www.w3.org/2000/svg">
<path d="M39.3587 96.3104H284.359C286.39 96.3104 288.152 94.9159 288.617 92.9393C289.085 90.9666 288.132 88.9276 286.316 88.0213L263.281 76.5053C256.371 73.0326 250.761 67.4233 247.289 60.5133C243.992 53.9195 237.726 49.3103 230.449 48.1303C223.168 46.9467 215.769 49.3373 210.554 54.5522C209.507 55.5991 208.042 56.1225 206.569 55.978C205.093 55.8296 203.765 55.0288 202.94 53.7983L202.097 52.5366V52.5327C194.831 41.6067 182.574 35.0447 169.449 35.0597C157.793 35.0871 146.824 40.5753 139.808 49.8837L134.288 57.247L134.284 57.2431C132.3 59.8915 129.265 61.5478 125.964 61.7822C122.663 62.0166 119.421 60.8057 117.081 58.4658C113.308 54.6728 108.171 52.5439 102.819 52.5596H100.702C96.9715 52.5596 93.3114 53.5948 90.132 55.5518L37.062 88.2078C35.394 89.2351 34.6128 91.243 35.144 93.1258C35.6791 95.0125 37.4018 96.3133 39.3588 96.3094L39.3587 96.3104Z" fill="rgba(255, 255, 255, 87%)"/>
<path d="M362.219 93.1304C362.75 95.0132 364.469 96.314 366.426 96.314H498.836C500.867 96.314 502.629 94.9195 503.094 92.9429C503.562 90.9702 502.609 88.9312 500.793 88.0249L488.344 81.8022C484.996 80.1186 482.281 77.4038 480.598 74.0561C478.527 69.9116 474.59 67.017 470.02 66.2749C465.445 65.5327 460.797 67.0366 457.52 70.314C457.383 70.4546 457.184 70.5249 456.985 70.5054C456.785 70.4898 456.606 70.3804 456.5 70.2124L456.047 69.5289H456.043C451.742 63.0641 444.492 59.1809 436.727 59.1889C429.794 59.2045 423.27 62.4701 419.094 68.0053L416.11 71.9819H416.114C415.391 72.9506 414.282 73.5522 413.078 73.6381C411.875 73.724 410.696 73.2826 409.844 72.4311C407.426 70.0014 404.141 68.6381 400.715 68.6499H399.575C397.184 68.6499 394.84 69.31 392.805 70.564L364.125 88.212C362.461 89.2393 361.68 91.2472 362.215 93.13L362.219 93.1304Z" fill="rgba(255, 255, 255, 87%)"/>
<path d="M322.029 285.68C321.275 284.239 319.783 283.337 318.154 283.337H108.154C106.525 283.337 105.033 284.239 104.279 285.68L8.02896 469.43C7.31802 470.786 7.3688 472.415 8.16177 473.727C8.95474 475.036 10.3727 475.837 11.904 475.837H337.314L339.654 494.517C339.919 496.712 341.783 498.361 343.994 498.357C344.447 498.353 344.896 498.282 345.329 498.15L415.735 475.63C416.966 475.235 417.958 474.317 418.446 473.118C418.939 471.923 418.872 470.571 418.271 469.426L322.029 285.68ZM313.779 467.09H229.134L313.779 305.5V467.09ZM347.685 488.211L325.505 311.171L408.114 468.881L347.685 488.211Z" fill="rgba(255, 255, 255, 87%)"/>
<path d="M490.689 188.59C492.009 188.618 493.275 188.071 494.162 187.09C495.56 185.477 495.591 183.087 494.236 181.438L436.486 111.25C435.654 110.238 434.416 109.652 433.107 109.652C431.799 109.652 430.56 110.238 429.728 111.25L371.978 181.438C370.623 183.087 370.654 185.477 372.052 187.09C372.939 188.071 374.205 188.618 375.525 188.59H401.193L352.783 245.313C351.385 246.942 351.381 249.349 352.771 250.985C353.65 251.993 354.932 252.556 356.271 252.532H383.9L349.982 294.934L316.064 252.528H343.697C345.033 252.556 346.315 251.993 347.197 250.985C348.588 249.349 348.58 246.942 347.186 245.309L298.776 188.586H324.44V188.59C325.76 188.614 327.029 188.067 327.912 187.09C329.311 185.477 329.342 183.086 327.987 181.438L270.237 111.25C269.405 110.238 268.166 109.652 266.858 109.652C265.549 109.652 264.311 110.238 263.479 111.25L205.729 181.438C204.373 183.086 204.405 185.477 205.803 187.09C206.69 188.071 207.955 188.618 209.276 188.59H234.944L186.534 245.313C185.135 246.942 185.131 249.349 186.522 250.985C187.401 251.993 188.682 252.556 190.022 252.532H217.651L205.694 267.481C204.639 268.794 204.436 270.594 205.163 272.11C205.893 273.626 207.424 274.591 209.108 274.591H262.483V125.841C262.483 123.423 264.44 121.466 266.858 121.466C269.276 121.466 271.233 123.423 271.233 125.841V274.591H323.448C325.073 274.591 326.565 275.493 327.319 276.93L350.069 320.368V320.372C350.827 321.814 352.315 322.716 353.944 322.716H428.733V379.404C428.694 381.705 430.397 383.662 432.682 383.947C433.909 384.068 435.132 383.662 436.046 382.834C436.96 382.002 437.483 380.826 437.483 379.592V322.717H529.358C531.272 322.717 532.968 321.474 533.538 319.646C533.96 318.197 533.632 316.635 532.663 315.478L482.315 252.529H509.948C511.284 252.557 512.565 251.994 513.448 250.986C514.838 249.35 514.831 246.943 513.436 245.31L465.026 188.587L490.689 188.59ZM437.482 313.97H428.732V125.85C428.732 123.432 430.689 121.475 433.107 121.475C435.525 121.475 437.482 123.432 437.482 125.85V313.97Z" fill="rgba(255, 255, 255, 87%)"/>
<path d="M76.2389 320.37L96.2389 282.171V125.841C96.2389 123.423 98.1959 121.466 100.614 121.466C103.032 121.466 104.989 123.423 104.989 125.841V274.591H158.364C160.047 274.591 161.579 273.627 162.309 272.111C163.036 270.595 162.833 268.795 161.778 267.482L149.821 252.529H177.454C178.79 252.556 180.071 251.994 180.954 250.986C182.345 249.349 182.337 246.943 180.942 245.31L132.532 188.587H158.196V188.591C159.516 188.615 160.786 188.068 161.669 187.091C163.067 185.478 163.099 183.087 161.743 181.439L103.993 111.251C103.161 110.239 101.923 109.653 100.614 109.653C99.3056 109.653 98.0673 110.239 97.2353 111.251L39.4853 181.439C38.1298 183.087 38.1611 185.478 39.5595 187.091C40.4462 188.072 41.7118 188.618 43.0322 188.591H68.7002L20.2902 245.31C18.8918 246.943 18.8879 249.349 20.2785 250.986C21.1574 251.994 22.4387 252.556 23.7785 252.529H51.4075L1.0555 315.478C0.0867509 316.634 -0.241399 318.197 0.180501 319.646C0.754721 321.474 2.45 322.716 4.3641 322.716H72.3601C73.989 322.716 75.4812 321.814 76.239 320.372L76.2389 320.37Z" fill="rgba(255, 255, 255, 87%)"/>
<path d="M510.979 468.84C525.264 458.07 533.682 441.231 533.729 423.34V422.114C533.733 419.004 532.756 415.973 530.936 413.45C529.119 410.926 526.553 409.044 523.6 408.059L515.912 405.501C514.244 404.942 512.897 403.688 512.225 402.063C511.549 400.438 511.615 398.598 512.401 397.024C513.795 394.247 514.276 391.098 513.776 388.028C513.276 384.958 511.822 382.126 509.623 379.93C502.627 372.961 498.701 363.489 498.728 353.614V344.591C498.728 342.821 497.662 341.224 496.029 340.544C494.392 339.868 492.51 340.243 491.26 341.497L469.975 362.782V362.778C465.963 366.77 463.713 372.204 463.728 377.864C463.74 382.634 461.045 386.997 456.771 389.118C453.596 390.692 450.924 393.126 449.061 396.141C447.197 399.157 446.217 402.634 446.229 406.18C446.236 406.47 446.084 406.739 445.834 406.88C445.596 407.044 445.287 407.055 445.037 406.911L435.06 401.923V401.927C433.705 401.251 432.096 401.325 430.807 402.122C429.518 402.919 428.732 404.325 428.729 405.841V431.029C428.732 440.056 431.217 448.912 435.912 456.619C440.607 464.33 447.33 470.603 455.35 474.748L438.866 490.146H438.87C437.972 490.927 437.432 492.036 437.37 493.224C437.307 494.407 437.733 495.568 438.542 496.435C439.354 497.302 440.483 497.806 441.671 497.821C442.858 497.841 444.003 497.376 444.839 496.536L464.351 478.325C465.249 478.575 466.167 478.806 467.085 479.013L463.816 494.829C463.331 497.192 464.855 499.501 467.218 499.989C467.511 500.055 467.808 500.086 468.105 500.09C470.183 500.09 471.976 498.626 472.394 496.59L475.784 480.16C476.495 480.192 477.206 480.215 477.917 480.215C482.644 480.203 487.351 479.571 491.917 478.332L508.651 496.324C509.479 497.211 510.64 497.715 511.854 497.715C512.96 497.719 514.022 497.301 514.831 496.543C516.6 494.898 516.702 492.129 515.057 490.355L500.828 475.066L500.831 475.063C504.109 473.52 507.226 471.648 510.128 469.473L510.979 468.84ZM500.338 449.973L496.138 451.864H496.135C494.318 452.684 492.439 453.36 490.513 453.887L497.338 447.512C498.236 446.731 498.775 445.622 498.838 444.438C498.9 443.251 498.474 442.091 497.666 441.223C496.853 440.356 495.724 439.856 494.537 439.837C493.349 439.817 492.205 440.282 491.369 441.126L482.041 449.833L485.517 432.978C486.006 430.611 484.482 428.294 482.115 427.802C479.748 427.314 477.431 428.837 476.939 431.204L473.865 446.102L466.197 437.856H466.201C464.553 436.087 461.779 435.985 460.01 437.637C458.24 439.286 458.142 442.055 459.791 443.825L469.221 453.942C469.205 453.946 469.189 453.942 469.174 453.934C463.943 452.454 459.568 448.848 457.123 443.989C455.716 441.227 454.982 438.176 454.978 435.075V428.774V428.778C461.373 429.305 467.662 426.922 472.103 422.293C476.541 417.661 478.658 411.277 477.861 404.91C477.33 400.668 478.466 396.387 481.033 392.965L483.681 389.454L486.646 400.731H486.642C489.111 410.055 493.583 418.723 499.744 426.141C499.822 426.238 499.92 426.336 500.006 426.438L503.912 430.344V430.34C506.736 433.152 507.998 437.176 507.283 441.098C506.568 445.016 503.971 448.336 500.338 449.973L500.338 449.973Z" fill="rgba(255, 255, 255, 87%)"/>
<path d="M328.109 95.2105C343.75 95.1987 358.414 87.5933 367.441 74.8195C368.48 73.3429 368.507 71.3781 367.507 69.8742C366.503 68.3703 364.683 67.6359 362.918 68.0265C351.258 70.6124 339.055 67.7686 329.734 60.296C320.417 52.8233 314.992 41.53 314.984 29.585C314.968 21.46 317.484 13.53 322.179 6.89696C323.222 5.42036 323.245 3.45556 322.245 1.95166C321.245 0.443861 319.421 -0.286639 317.655 0.103961C302.085 3.55706 289.237 14.506 283.35 29.331C277.468 44.155 279.311 60.936 288.276 74.128C297.237 87.323 312.159 95.218 328.108 95.21L328.109 95.2105Z" fill="rgba(255, 255, 255, 87%)"/>
</svg>
