<svg width="40" height="50" viewBox="0 0 179 168" fill="none" xmlns="http://www.w3.org/2000/svg">
<path d="M50.9851 145.971C47.8675 145.971 44.7499 145.229 41.8934 143.731L37.9927 141.68C35.3002 140.266 34.3381 137.074 35.8447 134.533C37.3438 132.013 40.7523 131.096 43.4597 132.517L47.3529 134.561C49.7097 135.786 52.4097 135.772 54.7516 134.484C57.1009 133.182 58.4584 130.963 58.4584 128.387V53.186C58.4584 50.288 60.9644 47.936 64.0521 47.936C67.1399 47.936 69.6459 50.288 69.6459 53.186V128.387C69.6459 134.687 66.1927 140.35 60.4124 143.535C57.4739 145.152 54.2295 145.971 50.9851 145.971Z" fill="black"/>
<path d="M89.5149 167.993C87.1804 167.993 84.8459 167.426 82.7725 166.285L64.8501 156.436C62.1875 154.966 61.2851 151.753 62.8439 149.254C64.4026 146.748 67.826 145.915 70.4961 147.371L88.4185 157.22C89.0897 157.598 89.8952 157.605 90.5963 157.22L155.476 121.562C156.185 121.177 156.625 120.449 156.625 119.637V48.342C156.625 47.544 156.177 46.802 155.461 46.41L90.6112 10.78C89.9251 10.409 89.1047 10.402 88.4483 10.773L23.5012 46.424C22.8075 46.809 22.3749 47.537 22.3749 48.328V119.637C22.3749 120.421 22.8224 121.177 23.5086 121.548L43.5566 132.566C46.2192 134.036 47.1217 137.249 45.5629 139.748C43.9967 142.24 40.5733 143.08 37.9107 141.631L17.8627 130.613C13.7457 128.352 11.1874 124.138 11.1874 119.637V48.342C11.1725 43.848 13.7307 39.634 17.8477 37.366L82.7651 1.72196C86.9268 -0.567037 92.088 -0.574037 96.2646 1.71496L161.13 37.352C165.262 39.634 167.812 43.848 167.812 48.342V119.651C167.798 124.152 165.247 128.338 161.152 130.613L96.2497 166.285C94.1763 167.426 91.8419 167.993 89.5149 167.993Z" fill="black"/>
<path d="M107.683 120.064C90.9171 120.064 73.0022 114.639 73.0022 99.407C73.0022 96.509 75.5082 94.157 78.596 94.157C81.6837 94.157 84.1897 96.509 84.1897 99.407C84.1897 107.429 98.9572 109.564 107.683 109.564C123.271 109.564 131.177 107.989 131.177 99.407C131.177 95.095 125.569 93.408 111.793 90.328L106.334 89.089C104.663 88.704 102.895 88.34 101.083 87.962C89.2316 85.505 72.9948 82.152 72.9948 68.586C72.9948 53.354 90.9097 47.929 107.676 47.929C124.442 47.929 142.357 53.354 142.357 68.586C142.357 71.484 139.851 73.836 136.764 73.836C133.676 73.836 131.17 71.484 131.17 68.586C131.17 60.564 116.402 58.429 107.676 58.429C98.9498 58.429 84.1823 60.571 84.1823 68.586C84.1823 73.332 92.5505 75.439 103.492 77.707C105.409 78.106 107.273 78.491 109.026 78.904L114.381 80.115C128.776 83.328 142.365 86.366 142.365 99.407C142.365 120.064 118.938 120.064 107.683 120.064Z" fill="black"/>
</svg>
