<svg width="30" height="50" viewBox="0 0 20 22" fill="none" xmlns="http://www.w3.org/2000/svg">
<path d="M10.325 21.749C10.035 21.749 9.74702 21.673 9.49302 21.525L6.84303 19.957C6.44703 19.736 6.64003 19.657 6.77103 19.612C7.29903 19.428 7.40602 19.385 7.96902 19.067C8.02802 19.034 8.10502 19.046 8.16602 19.082L10.201 20.291C10.275 20.332 10.38 20.332 10.447 20.291L18.384 15.71C18.459 15.668 18.506 15.583 18.506 15.495V6.33501C18.506 6.24501 18.459 6.162 18.383 6.116L10.449 1.53901C10.375 1.49701 10.278 1.49701 10.204 1.53901L2.27103 6.117C2.19503 6.162 2.14603 6.24801 2.14603 6.33501V15.495C2.14603 15.583 2.19503 15.666 2.27103 15.707L4.44502 16.964C5.62502 17.553 6.34802 16.859 6.34802 16.161V7.116C6.34802 6.98901 6.45103 6.88801 6.57803 6.88801H7.58502C7.71002 6.88801 7.81403 6.98901 7.81403 7.116V16.161C7.81403 17.735 6.95702 18.638 5.46402 18.638C5.00502 18.638 4.64402 18.638 3.63602 18.142L1.55502 16.944C1.04002 16.646 0.723022 16.09 0.723022 15.496V6.33601C0.723022 5.74101 1.04002 5.18601 1.55502 4.89001L9.49202 0.303009C9.99402 0.0200093 10.661 0.0200093 11.159 0.303009L19.096 4.89001C19.61 5.18701 19.929 5.74201 19.929 6.33601V15.496C19.929 16.091 19.61 16.644 19.096 16.944L11.159 21.526C10.907 21.673 10.62 21.749 10.325 21.749ZM12.778 15.438C9.30302 15.438 8.57602 13.843 8.57602 12.506C8.57602 12.38 8.67902 12.277 8.80602 12.277H9.83202C9.94702 12.277 10.042 12.359 10.06 12.471C10.214 13.516 10.677 14.043 12.778 14.043C14.449 14.043 15.161 13.665 15.161 12.777C15.161 12.265 14.959 11.886 12.361 11.631C10.189 11.416 8.84602 10.937 8.84602 9.19801C8.84602 7.59701 10.196 6.64101 12.458 6.64101C15.001 6.64101 16.259 7.52401 16.418 9.41801C16.424 9.48201 16.401 9.54501 16.358 9.59401C16.314 9.63901 16.254 9.66701 16.19 9.66701H15.159C15.052 9.66701 14.958 9.59201 14.936 9.48801C14.688 8.38801 14.088 8.03701 12.457 8.03701C10.632 8.03701 10.42 8.67401 10.42 9.14901C10.42 9.72601 10.67 9.89401 13.135 10.22C15.574 10.543 16.733 10.999 16.733 12.714C16.734 14.447 15.292 15.438 12.778 15.438Z" fill="white"/>
</svg>
