<svg width="50" height="50" viewBox="0 0 528 457" fill="none" xmlns="http://www.w3.org/2000/svg">
<path d="M354.701 271.611C357.308 252.824 356.528 250.068 372.694 253.11L376.798 253.424C389.231 253.913 405.496 251.693 415.045 247.851C435.612 239.593 447.806 225.797 427.527 229.421C381.266 237.679 378.085 224.126 378.085 224.126C426.938 161.392 447.36 81.7601 429.734 62.2662C381.662 9.09712 298.444 34.2393 297.05 34.8926L296.604 34.9676C287.463 33.3217 277.237 32.3434 265.745 32.1828C244.811 31.8864 228.925 36.9348 216.876 44.8431C216.876 44.8431 68.4214 -8.09393 75.3267 111.415C76.7952 136.839 117.431 303.791 165.895 253.364C183.608 234.927 200.727 219.335 200.727 219.335C209.228 224.223 219.405 226.715 230.08 225.819L230.905 225.212C230.649 227.5 230.761 229.739 231.239 232.388C218.753 244.466 222.424 246.587 197.46 251.032C172.206 255.538 187.044 263.557 196.725 265.653C208.473 268.198 235.637 271.801 253.997 249.554L253.267 252.093C258.167 255.484 257.833 276.467 258.526 291.459C259.219 306.451 260.382 320.439 263.913 328.694C267.444 336.941 271.611 358.188 304.417 352.104C331.832 347.013 352.791 339.694 354.701 271.611" fill="black"/>
<path d="M293.733 366.921C279.221 366.921 269.775 362.065 264.033 357.374C255.371 350.301 251.934 341.186 249.884 335.741L248.997 333.467C244.864 323.809 243.466 309.907 242.637 292.005C242.513 289.32 242.422 286.546 242.327 283.608C242.257 281.462 242.171 278.77 242.047 275.946C236.891 278.084 231.371 279.595 225.559 280.459C215.329 281.973 204.332 281.48 192.864 278.998C184.775 277.249 176.369 273.622 171.579 268.016C157.616 278.602 144.297 277.163 137.041 275.071C124.241 271.376 112.786 260.997 102.015 243.331C94.347 230.753 86.9261 214.358 79.959 194.611C67.8315 160.218 60.126 123.993 59.4413 112.104C57.288 74.8766 68.8628 48.2563 93.8438 32.9861C133.258 8.89006 192.968 23.0571 214.735 29.4908C229.358 21.861 246.564 18.1443 266.009 18.4157C276.453 18.562 286.395 19.3582 295.631 20.7792C305.262 18.1586 324.295 14.3955 346.079 14.6275C386.216 15.0417 419.475 28.5803 442.258 53.7796C458.514 71.7597 450.479 109.512 444.238 130.42C435.464 159.821 420.082 191.101 401.189 218.328C406.321 218.36 413.75 217.825 424.318 215.94C445.166 212.212 451.258 221.888 452.913 226.219C459.541 243.595 430.728 256.723 421.74 260.333C410.223 264.964 391.45 267.781 376.072 267.17L375.4 267.131L371.361 266.824L370.961 269.737L370.578 272.59C369.546 307.093 363.85 328.944 352.131 343.385C339.851 358.52 322.777 362.765 307.741 365.554C302.622 366.507 297.961 366.921 293.733 366.921V366.921ZM263.2 241.339C272.568 247.826 273.389 260.033 274.119 282.847C274.209 285.693 274.296 288.388 274.412 290.905C274.766 298.524 275.595 316.369 278.821 323.909C279.279 324.973 279.687 326.059 280.116 327.201C283.713 336.741 285.52 341.522 301.076 338.637C314.139 336.216 320.851 334.042 326.106 327.565C333.746 318.147 338.019 299.214 338.803 271.272L354.692 271.608L338.91 269.969L339.372 266.56C340.886 255.32 341.975 247.194 350.658 241.824C357.621 237.515 365.562 237.933 371.885 238.918C364.939 234.38 363.016 229.046 362.505 226.861L361.181 221.213L364.902 216.429C386.352 188.88 404.044 155.023 413.44 123.536C423.093 91.1822 420.148 73.9983 417.207 70.7493C378.242 27.652 310.662 45.4429 303.608 47.4673L302.412 48.0242L296.431 48.9918L293.366 48.442C284.922 46.9246 275.542 46.0856 265.481 45.9428C249.678 45.7143 236.932 48.9454 226.479 55.8111L219.227 60.5703L210.808 57.5677C192.831 51.2054 140.015 38.413 112.146 55.4969C96.6776 64.9797 89.6321 83.5631 91.1996 110.73C91.7153 119.698 98.7608 153.648 110.369 186.581C126.419 232.088 141.005 247.201 147.093 248.961C148.154 249.272 150.913 247.415 153.656 244.566C171.501 225.99 188.471 210.506 189.185 209.852L198.388 201.473L209.513 207.871C213.997 210.452 218.943 211.912 224.025 212.187L250.561 192.6L246.716 226.554C246.63 227.318 246.588 228.354 246.935 230.282L248.09 236.719L243.086 241.567L242.509 242.128L257.087 247.955L263.2 241.339V241.339Z" fill="black"/>
<path d="M427.54 229.421C381.274 237.679 378.093 224.123 378.093 224.123C426.942 161.389 447.36 81.753 429.738 62.2627C381.662 9.09357 298.444 34.2393 297.054 34.8926L296.604 34.9605C287.463 33.3217 277.237 32.3434 265.741 32.1828C244.806 31.8864 228.925 36.9313 216.876 44.8395C216.876 44.8395 68.4172 -8.09391 75.3225 111.415C76.791 136.839 117.426 303.791 165.891 253.364C183.604 234.927 200.718 219.335 200.718 219.335C209.22 224.223 219.396 226.715 230.068 225.819L230.897 225.212C230.641 227.5 230.757 229.739 231.227 232.388C218.745 244.466 222.408 246.587 197.451 251.032C172.194 255.538 187.032 263.557 196.721 265.653C208.465 268.198 235.632 271.801 253.989 249.554L253.254 252.093C258.147 255.484 261.583 274.154 261.005 291.077C260.428 308 260.044 319.618 263.901 328.694C267.758 337.766 271.598 358.188 304.408 352.104C331.823 347.016 346.03 333.838 348.01 311.86C349.412 296.232 352.584 298.542 352.787 284.568L355.336 277.952C358.269 256.766 355.802 249.933 372.694 253.114L376.798 253.424C389.231 253.917 405.5 251.693 415.049 247.851C435.616 239.589 447.814 225.797 427.54 229.421V229.421Z" fill="#336791"/>
<path d="M295.391 358.438C268.038 358.442 259.376 339.694 255.828 332.028C250.643 320.796 249.521 277.196 250.676 241.439C250.759 238.904 253.18 236.901 256.125 236.98C259.05 237.051 261.356 239.161 261.278 241.696C259.945 282.937 261.839 320.307 265.675 328.619C271.668 341.586 280.756 352.929 306.459 348.166C330.858 343.636 339.995 335.627 344.062 315.212C347.189 299.542 353.36 254.967 354.119 246.17C354.338 243.642 356.87 241.742 359.799 241.935C362.72 242.124 364.91 244.327 364.691 246.851C363.899 256.006 357.753 300.499 354.507 316.772C349.701 340.89 337.281 351.829 308.678 357.138C303.823 358.035 299.405 358.438 295.391 358.438V358.438ZM147.093 266.877C144.482 266.881 142.115 266.467 140.064 265.874C122.298 260.744 105.377 235.701 89.7683 191.437C77.8883 157.74 70.3601 122.572 69.7001 111.144C67.7408 77.2616 77.8264 53.287 99.6683 39.8912C142.882 13.3887 215.581 38.6273 218.654 39.7126C221.364 40.6731 222.663 43.3508 221.554 45.6965C220.448 48.0386 217.35 49.1668 214.644 48.2064V48.21C213.943 47.9601 144.231 23.789 105.777 47.3924C87.0994 58.8567 78.5235 80.15 80.2849 110.69C80.8418 120.316 87.8749 154.645 99.9075 188.762C113.842 228.275 129.702 253.214 143.418 257.17C145.567 257.794 152.118 259.683 161.49 249.936C179.112 231.585 195.302 216.939 195.463 216.793C197.489 214.961 200.846 214.904 202.958 216.654C205.07 218.407 205.145 221.313 203.119 223.141C202.958 223.284 187.015 237.711 169.641 255.802C161.411 264.364 153.52 266.877 147.093 266.877V266.877ZM377.763 228.214C376.745 228.214 375.713 227.961 374.806 227.429C372.376 226.015 371.733 223.162 373.37 221.06C422.751 157.637 440.084 81.0069 425.238 64.5906C406.552 43.9256 380.164 33.129 346.813 32.5113C322.117 32.0472 302.486 37.5062 299.281 38.4595L298.477 38.7415C295.251 39.6198 292.776 38.0881 291.844 36.2994C290.738 34.1822 291.646 31.6794 293.939 30.4762L295.367 29.9693L295.296 29.9871L295.371 29.9657C300.82 28.2412 320.748 23.0643 345.436 23.3106C382.342 23.6462 412.826 35.9674 433.591 58.9316C443.417 69.7997 443.438 94.8383 433.653 127.624C423.679 161.05 404.91 196.978 382.165 226.19C381.142 227.508 379.467 228.214 377.763 228.214V228.214ZM380.284 257.573C371.852 257.573 364.295 256.548 359.77 254.199C355.117 251.789 354.23 248.508 354.115 246.769C352.844 227.475 365.145 224.116 371.419 222.584C370.545 221.442 369.299 220.096 368.016 218.707C364.357 214.751 359.349 209.331 355.488 201.226C354.886 199.963 352.989 197.017 350.794 193.611C338.902 175.156 314.16 136.75 330.054 117.081C337.413 107.981 352.056 104.4 373.638 106.399C367.29 89.6577 337.054 37.2848 265.32 36.2673C243.742 35.9531 226.046 41.6977 212.751 53.3155C182.981 79.3395 184.062 126.425 184.074 126.893C184.152 129.427 181.838 131.534 178.914 131.598C175.985 131.677 173.551 129.667 173.477 127.132C173.411 125.043 172.297 75.6336 205.219 46.8568C220.626 33.3896 240.904 26.7417 265.493 27.088C311.396 27.7414 340.935 47.9351 357.637 64.7655C375.837 83.1027 384.764 103.332 385.498 110.08C386.046 115.1 381.884 116.107 381.043 116.253L379.133 116.292C357.951 113.357 344.363 115.393 338.745 122.344C326.655 137.296 350.06 173.624 360.055 189.141C362.608 193.097 364.448 195.957 365.289 197.724C368.573 204.615 372.855 209.245 376.295 212.966C379.319 216.24 381.942 219.074 382.883 222.409C383.316 223.07 389.495 230.974 426.146 224.426C435.332 222.788 440.839 224.191 442.522 228.596C445.834 237.269 427.251 247.38 416.963 251.518C407.732 255.227 393.018 257.573 380.284 257.573V257.573ZM364.687 246.012C365.846 247.03 371.663 248.779 383.712 248.333C394.42 247.933 405.719 245.916 412.5 243.195C421.171 239.711 426.954 235.816 429.953 233.156L428.286 233.42C404.852 237.608 388.278 237.051 379.026 231.76C378.362 231.385 377.772 230.992 377.231 230.607C376.229 230.949 375.301 231.174 374.641 231.335C369.39 232.609 363.961 233.927 364.687 246.012V246.012ZM213.312 271.644C207.492 271.644 201.366 270.962 195.108 269.602C188.628 268.198 177.697 263.975 177.866 257.038C178.052 249.251 191.132 246.916 196.061 246.037C213.848 242.867 215.007 241.596 220.568 235.487C222.189 233.706 224.206 231.488 226.953 228.829C231.037 224.876 235.5 222.87 240.219 222.87C243.503 222.87 246.201 223.837 247.979 224.473C253.655 226.508 258.39 231.428 260.337 237.319C262.094 242.631 261.257 247.744 257.978 251.714C247.22 264.757 231.776 271.644 213.312 271.644V271.644ZM189.317 257.434C190.917 258.501 194.118 259.93 197.678 260.704C203.099 261.875 208.354 262.472 213.312 262.472C228.418 262.472 240.541 257.055 249.352 246.384C251.188 244.156 250.639 241.332 250.148 239.843C249.117 236.73 246.56 233.898 243.924 232.949C242.492 232.435 241.308 232.042 240.219 232.042C239.634 232.042 237.856 232.042 234.857 234.944C232.324 237.394 230.505 239.393 228.892 241.16C221.97 248.769 218.798 251.35 198.198 255.024C193.174 255.924 190.596 256.83 189.317 257.434ZM230.08 236.269C227.506 236.269 225.25 234.645 224.846 232.377C224.709 231.617 224.623 230.849 224.582 230.078C211.076 229.857 198.05 224.844 188.162 215.911C175.659 204.618 169.967 188.973 172.549 172.989C175.354 155.63 174.306 140.306 173.741 132.073C173.584 129.784 173.473 128.131 173.481 126.985C173.489 125.536 173.522 121.683 188.393 115.16C193.681 112.84 204.287 108.791 215.87 107.752C235.067 106.038 247.719 113.436 251.505 128.588C261.727 169.504 252.314 187.602 245.442 200.816C244.159 203.272 242.95 205.6 241.985 207.849L241.131 209.838C237.501 218.264 234.362 225.544 235.327 230.985C235.769 233.491 233.784 235.83 230.893 236.219L230.08 236.269V236.269ZM184.115 128.253L184.326 131.53C184.911 140.081 186 155.998 183.047 174.263C180.918 187.445 185.571 200.316 195.814 209.567C203.907 216.879 214.566 220.913 225.518 220.913H225.745C226.974 216.44 229.008 211.72 231.198 206.632L232.048 204.658C233.141 202.115 234.42 199.656 235.773 197.053C242.389 184.328 250.623 168.49 241.139 130.527C239.258 123.012 234.704 118.659 227.217 117.224C211.839 114.282 188.925 124.293 184.115 128.253V128.253ZM216.109 126.307C215.845 127.928 219.545 132.259 224.363 132.837C229.177 133.419 233.298 130.034 233.558 128.413C233.817 126.789 230.121 125.004 225.299 124.422C220.485 123.84 216.365 124.683 216.109 126.307V126.307ZM225.473 134.437L224.12 134.354C221.129 133.994 218.105 132.362 216.039 129.988C215.313 129.156 214.125 127.535 214.36 126.093C214.698 123.976 217.676 122.712 222.333 122.712C223.377 122.712 224.458 122.78 225.551 122.908C228.092 123.215 230.456 123.851 232.2 124.693C235.224 126.157 235.447 127.785 235.311 128.631C234.935 130.963 230.637 134.437 225.473 134.437V134.437ZM217.866 126.578C218.019 127.578 220.877 130.881 224.606 131.327L225.468 131.38C228.909 131.38 231.483 129.035 231.784 128.267C231.466 127.746 229.255 126.443 225.056 125.943C224.128 125.829 223.208 125.771 222.329 125.771C219.64 125.768 218.2 126.293 217.866 126.578V126.578ZM362.74 122.997C363 124.622 359.308 128.953 354.486 129.531C349.668 130.109 345.547 126.728 345.283 125.104C345.027 123.483 348.723 121.694 353.541 121.116C358.359 120.53 362.476 121.38 362.74 122.997ZM353.376 130.359C348.736 130.359 344.739 127.235 344.409 125.211C344.029 122.78 348.653 120.93 353.422 120.359C354.47 120.23 355.509 120.166 356.511 120.166C360.624 120.166 363.347 121.212 363.619 122.894C363.796 123.986 362.831 125.668 361.164 127.182C360.067 128.181 357.757 129.913 354.614 130.288L353.376 130.359ZM356.507 121.694C355.587 121.694 354.63 121.755 353.661 121.869C348.868 122.444 346.017 124.111 346.154 125.004C346.314 125.982 349.371 128.831 353.372 128.831L354.358 128.771C356.973 128.453 358.937 126.978 359.873 126.125C361.342 124.786 361.928 123.529 361.857 123.097C361.771 122.537 360.005 121.694 356.507 121.694V121.694ZM369.683 216.14C368.668 216.14 367.645 215.89 366.737 215.365C364.304 213.951 363.652 211.105 365.281 208.999C376.567 194.407 374.501 179.523 372.504 165.134C371.65 159 370.772 152.663 371.003 146.576C371.234 140.317 372.149 135.154 373.04 130.156C374.092 124.24 375.086 118.645 374.674 112.011C374.513 109.484 376.757 107.324 379.682 107.181C382.614 107.045 385.102 108.987 385.263 111.519C385.733 119.102 384.607 125.429 383.518 131.552C382.676 136.275 381.806 141.16 381.596 146.868C381.393 152.256 382.19 157.979 383.031 164.035C385.16 179.34 387.564 196.689 374.092 214.101C373.069 215.422 371.39 216.14 369.683 216.14Z" fill="white"/>
<path d="M11.6944 368.399C16.203 367.749 22.0976 367.192 29.6093 367.192C38.8286 367.192 45.5895 369.049 49.8795 372.391C53.8478 375.361 56.2073 379.91 56.2073 385.483C56.2073 391.146 54.2726 395.601 50.6261 398.85C45.6926 403.399 37.6489 405.72 28.5326 405.72C25.7441 405.72 23.1701 405.627 21.0293 405.163V430.23H11.6944V368.399V368.399ZM21.0293 398.568C23.067 399.032 25.641 399.218 28.7513 399.218C40.0084 399.218 46.8765 394.484 46.8765 385.851C46.8765 377.589 40.1198 373.598 29.8238 373.598C25.7483 373.598 22.638 373.876 21.0293 374.247V398.568V398.568ZM112.728 407.387C112.728 424.003 99.4249 431.247 86.8767 431.247C72.8269 431.247 61.9946 422.336 61.9946 408.13C61.9946 393.091 73.3631 384.273 87.7346 384.273C102.647 384.269 112.728 393.648 112.728 407.387V407.387ZM71.544 407.851C71.544 417.691 78.0863 425.117 87.3098 425.117C96.3188 425.117 103.071 417.784 103.071 407.665C103.071 400.054 98.6783 390.399 87.5201 390.399C76.362 390.399 71.544 399.311 71.544 407.851ZM123.342 421.868C126.13 423.446 131.064 425.117 135.783 425.117C142.647 425.117 145.864 422.147 145.864 418.433C145.864 414.535 143.187 412.4 136.212 410.172C126.881 407.294 122.484 402.838 122.484 397.454C122.484 390.214 129.24 384.273 140.394 384.273C145.65 384.273 150.266 385.572 153.161 387.058L150.802 392.999C148.764 391.885 145.01 390.399 140.184 390.399C134.607 390.399 131.497 393.184 131.497 396.526C131.497 400.239 134.611 401.91 141.368 404.138C150.377 407.108 154.989 411.007 154.989 417.691C154.989 425.581 147.91 431.151 135.576 431.151C129.892 431.151 124.637 429.944 120.99 428.088L123.342 421.868V421.868ZM178.472 372.387V385.29H191.982V391.51H178.472V415.738C178.472 421.308 180.291 424.464 185.551 424.464C188.018 424.464 189.841 424.185 191.021 423.907L191.45 430.033C189.63 430.683 186.731 431.147 183.088 431.147C178.691 431.147 175.148 429.941 172.895 427.713C170.218 425.299 169.249 421.308 169.249 416.016V391.51H161.205V385.29H169.249V374.522L178.472 372.387V372.387ZM246.683 385.294C246.465 388.543 246.254 392.163 246.254 397.64V423.725C246.254 434.029 243.895 440.341 238.854 444.243C233.813 448.328 226.52 449.627 219.978 449.627C213.758 449.627 206.894 448.328 202.707 445.914L205.066 439.695C208.498 441.551 213.861 443.222 220.296 443.222C229.948 443.222 237.027 438.859 237.027 427.534V422.522H236.812C233.916 426.699 228.339 430.041 220.296 430.041C207.426 430.041 198.202 420.572 198.202 408.13C198.202 392.906 209.678 384.273 221.583 384.273C230.596 384.273 235.529 388.357 237.782 392.07H237.996L238.425 385.294H246.683V385.294ZM236.924 403.024C236.924 401.632 236.816 400.425 236.387 399.311C234.671 394.577 230.06 390.678 223.196 390.678C214.182 390.678 207.752 397.269 207.752 407.665C207.752 416.484 212.9 423.818 223.088 423.818C228.88 423.818 234.135 420.661 236.173 415.463C236.709 414.071 236.928 412.492 236.928 411.1V403.024H236.924ZM261.265 399.311C261.265 394.02 261.158 389.471 260.836 385.294H269.099L269.416 394.113H269.845C272.205 388.079 277.889 384.273 284.217 384.273C285.289 384.273 286.036 384.366 286.894 384.551V392.256C285.933 392.07 284.963 391.977 283.68 391.977C277.031 391.977 272.308 396.34 271.025 402.467C270.81 403.581 270.596 404.881 270.596 406.273V430.223H261.265V399.311ZM300.523 409.244C300.737 420.29 308.884 424.839 318.322 424.839C325.083 424.839 329.154 423.818 332.694 422.518L334.302 428.366C330.978 429.666 325.293 431.151 317.035 431.151C301.055 431.151 291.51 422.054 291.51 408.501C291.51 394.948 300.733 384.269 315.855 384.269C332.801 384.269 337.305 397.172 337.305 405.434C337.305 407.105 337.091 408.405 336.984 409.24H300.523V409.244ZM328.193 403.395C328.296 398.197 325.722 390.121 315.109 390.121C305.564 390.121 301.381 397.733 300.626 403.395H328.193V403.395Z" fill="black"/>
<path d="M348.03 420.383C352.213 422.611 358.326 424.467 364.761 424.467C374.307 424.467 379.884 420.104 379.884 413.792C379.884 407.944 376.023 404.602 366.263 401.353C354.465 397.733 347.172 392.442 347.172 383.623C347.172 373.876 356.503 366.635 370.553 366.635C377.953 366.635 383.316 368.121 386.533 369.699L383.959 376.289C381.6 375.176 376.773 373.319 370.231 373.319C360.364 373.319 356.61 378.425 356.61 382.695C356.61 388.543 361.003 391.42 370.982 394.762C383.208 398.85 389.429 403.952 389.429 413.142C389.429 422.796 381.171 431.151 364.118 431.151C357.147 431.151 349.532 429.387 345.667 427.159L348.03 420.383V420.383ZM461.823 439.413C452.063 437.185 442.518 434.678 434.152 432.172C432.651 431.708 431.149 431.244 429.755 431.244C412.595 430.687 397.902 419.733 397.902 399.589C397.902 379.538 412.059 366.635 431.578 366.635C451.205 366.635 463.972 379.817 463.972 398.29C463.972 414.349 455.392 424.653 443.38 428.273V428.645C450.565 430.223 458.395 431.708 464.508 432.636L461.823 439.413V439.413ZM454.101 398.661C454.101 386.129 446.597 373.223 431.256 373.223C415.491 373.223 407.769 385.847 407.876 399.404C407.769 412.678 416.241 424.653 430.827 424.653C445.739 424.653 454.101 412.957 454.101 398.661V398.661ZM476.083 367.656H485.418V423.446H516.306V430.223H476.083V367.656Z" fill="#336791"/>
</svg>
