<svg width="40" height="50" viewBox="0 0 39 39" fill="none" xmlns="http://www.w3.org/2000/svg">
<path d="M25.8712 22.7734C26.0687 21.129 26.0097 20.8878 27.2344 21.154L27.5453 21.1815C28.4872 21.2243 29.7194 21.03 30.4428 20.6937C32.0009 19.9709 32.9247 18.7634 31.3884 19.0806C27.8837 19.8034 27.6428 18.6171 27.6428 18.6171C31.3437 13.1262 32.8909 6.15621 31.5556 4.44996C27.9137 -0.203791 21.6094 1.99683 21.5037 2.05402L21.47 2.06058C20.7775 1.91652 20.0028 1.8309 19.1322 1.81683C17.5462 1.7909 16.3428 2.23277 15.43 2.92496C15.43 2.92496 4.18342 -1.70848 4.70654 8.75184C4.81779 10.9771 7.89623 25.59 11.5678 21.1762C12.9097 19.5625 14.2065 18.1978 14.2065 18.1978C14.8506 18.6256 15.6215 18.8437 16.4303 18.7653L16.4928 18.7121C16.4734 18.9125 16.4819 19.1084 16.5181 19.3403C15.5722 20.3975 15.8503 20.5831 13.959 20.9721C12.0459 21.3665 13.17 22.0684 13.9034 22.2518C14.7934 22.4746 16.8512 22.79 18.2422 20.8428L18.1869 21.065C18.5581 21.3618 18.5328 23.1984 18.5853 24.5106C18.6378 25.8228 18.7259 27.0472 18.9934 27.7697C19.2609 28.4915 19.5765 30.3512 22.0619 29.8187C24.1387 29.3731 25.7265 28.7325 25.8712 22.7734Z" fill="white"/>
<path d="M21.2525 31.1156C20.1532 31.1156 19.4375 30.6906 19.0025 30.28C18.3463 29.6609 18.086 28.8631 17.9307 28.3866L17.8635 28.1875C17.5503 27.3422 17.4444 26.1253 17.3816 24.5584C17.3722 24.3234 17.3653 24.0806 17.3582 23.8234C17.3528 23.6356 17.3463 23.4 17.3369 23.1528C16.9463 23.34 16.5282 23.4722 16.0878 23.5478C15.3128 23.6803 14.4797 23.6372 13.611 23.42C12.9982 23.2669 12.3613 22.9494 11.9985 22.4587C10.9407 23.3853 9.93159 23.2594 9.3819 23.0762C8.41221 22.7528 7.5444 21.8444 6.72846 20.2981C6.14753 19.1972 5.58534 17.7622 5.05753 16.0337C4.13877 13.0234 3.55502 9.85281 3.50315 8.81219C3.34002 5.55375 4.2169 3.22375 6.1094 1.88719C9.09534 -0.221872 13.6188 1.01813 15.2678 1.58125C16.3757 0.91344 17.6791 0.588128 19.1522 0.611878C19.9435 0.62469 20.6966 0.694378 21.3963 0.818753C22.126 0.589378 23.5678 0.260003 25.2182 0.280315C28.2588 0.316565 30.7785 1.50156 32.5044 3.70719C33.736 5.28094 33.1272 8.58531 32.6544 10.4153C31.9897 12.9887 30.8244 15.7266 29.3932 18.1097C29.7819 18.1125 30.3447 18.0656 31.1453 17.9006C32.7247 17.5744 33.1863 18.4212 33.3116 18.8003C33.8138 20.3212 31.631 21.4703 30.95 21.7862C30.0775 22.1916 28.6553 22.4381 27.4903 22.3847L27.4394 22.3812L27.1335 22.3544L27.1032 22.6094L27.0741 22.8591C26.996 25.8791 26.5644 27.7916 25.6766 29.0556C24.7463 30.3803 23.4528 30.7519 22.3138 30.9959C21.926 31.0794 21.5728 31.1156 21.2525 31.1156ZM18.9394 20.1237C19.6491 20.6916 19.7113 21.76 19.7666 23.7569C19.7735 24.0059 19.78 24.2419 19.7888 24.4622C19.8157 25.1291 19.8785 26.6909 20.1228 27.3509C20.1575 27.4441 20.1885 27.5391 20.221 27.6391C20.4935 28.4741 20.6303 28.8925 21.8088 28.64C22.7985 28.4281 23.3069 28.2378 23.705 27.6709C24.2838 26.8466 24.6075 25.1894 24.6669 22.7437L25.8707 22.7731L24.675 22.6297L24.71 22.3312C24.8247 21.3475 24.9072 20.6362 25.565 20.1662C26.0925 19.7891 26.6941 19.8256 27.1732 19.9119C26.6469 19.5147 26.5013 19.0478 26.4625 18.8566L26.3622 18.3622L26.6441 17.9434C28.2691 15.5322 29.6094 12.5688 30.3213 9.81281C31.0525 6.98094 30.8294 5.47688 30.6066 5.1925C27.6547 1.42031 22.535 2.9775 22.0007 3.15469L21.91 3.20344L21.4569 3.28813L21.2247 3.24C20.585 3.10719 19.8744 3.03375 19.1122 3.02125C17.915 3.00125 16.9494 3.28406 16.1575 3.885L15.6082 4.30156L14.9703 4.03875C13.6085 3.48188 9.60721 2.36219 7.49596 3.8575C6.32409 4.6875 5.79034 6.31406 5.90909 8.69188C5.94815 9.47688 6.4819 12.4484 7.36128 15.3309C8.57721 19.3141 9.68221 20.6369 10.1435 20.7909C10.2238 20.8181 10.4328 20.6556 10.6407 20.4062C11.9925 18.7803 13.2782 17.425 13.3322 17.3678L14.0294 16.6344L14.8722 17.1944C15.2119 17.4203 15.5866 17.5481 15.9716 17.5722L17.9819 15.8578L17.6907 18.8297C17.6841 18.8966 17.681 18.9872 17.7072 19.1559L17.7947 19.7194L17.4157 20.1437L17.3719 20.1928L18.4763 20.7028L18.9394 20.1237Z" fill="white"/>
<path d="M31.5034 19.0411C27.9984 19.7639 27.7575 18.5773 27.7575 18.5773C31.4581 13.0864 33.005 6.11606 31.67 4.41013C28.0278 -0.243626 21.7234 1.95731 21.6181 2.0145L21.584 2.02044C20.8915 1.877 20.1169 1.79138 19.2459 1.77731C17.66 1.75138 16.4569 2.19294 15.5441 2.88513C15.5441 2.88513 4.29719 -1.748 4.82031 8.71232C4.93156 10.9376 8.01 25.5504 11.6816 21.1367C13.0234 19.5229 14.32 18.1583 14.32 18.1583C14.9641 18.5861 15.735 18.8042 16.5434 18.7258L16.6062 18.6726C16.5869 18.8729 16.5956 19.0689 16.6312 19.3008C15.6856 20.3579 15.9631 20.5436 14.0725 20.9326C12.1591 21.327 13.2831 22.0289 14.0172 22.2123C14.9069 22.4351 16.965 22.7504 18.3556 20.8033L18.3 21.0254C18.6706 21.3223 18.9309 22.9564 18.8872 24.4376C18.8434 25.9189 18.8144 26.9358 19.1066 27.7301C19.3987 28.5242 19.6897 30.3117 22.1753 29.7792C24.2522 29.3339 25.3284 28.1805 25.4784 26.2567C25.5847 24.8889 25.825 25.0911 25.8403 23.868L26.0334 23.2889C26.2556 21.4345 26.0687 20.8364 27.3484 21.1148L27.6594 21.142C28.6012 21.1851 29.8337 20.9904 30.5572 20.6542C32.1153 19.9311 33.0394 18.7239 31.5034 19.0411Z" fill="#336791"/>
<path d="M21.4922 30.3336C19.42 30.3339 18.7638 28.6929 18.495 28.022C18.1022 27.0389 18.0172 23.2226 18.1047 20.0929C18.111 19.8711 18.2944 19.6957 18.5175 19.7026C18.7391 19.7089 18.9138 19.8936 18.9078 20.1154C18.8069 23.7251 18.9503 26.9961 19.241 27.7236C19.695 28.8586 20.3835 29.8514 22.3307 29.4345C24.1791 29.0379 24.8713 28.337 25.1794 26.5501C25.4163 25.1786 25.8838 21.277 25.9413 20.507C25.9578 20.2857 26.1497 20.1195 26.3716 20.1364C26.5928 20.1529 26.7588 20.3457 26.7422 20.5667C26.6822 21.3679 26.2166 25.2623 25.9707 26.6867C25.6066 28.7976 24.6657 29.7551 22.4988 30.2198C22.131 30.2983 21.7963 30.3336 21.4922 30.3336V30.3336ZM10.2575 22.3195C10.0597 22.3198 9.88034 22.2836 9.72503 22.2317C8.37909 21.7826 7.09722 19.5907 5.91472 15.7164C5.01472 12.767 4.4444 9.68887 4.3944 8.68856C4.24597 5.72293 5.01003 3.62449 6.66472 2.45199C9.93847 0.132306 15.446 2.34137 15.6788 2.43637C15.8841 2.52043 15.9825 2.75481 15.8985 2.96012C15.8147 3.16512 15.58 3.26387 15.375 3.17981V3.18012C15.3219 3.15824 10.0407 1.04262 7.12753 3.10856C5.71253 4.112 5.06284 5.97575 5.19628 8.64887C5.23847 9.49137 5.77128 12.4961 6.68284 15.4823C7.73847 18.9407 8.94003 21.1236 9.97909 21.4698C10.1419 21.5245 10.6382 21.6898 11.3482 20.8367C12.6832 19.2304 13.9097 17.9486 13.9219 17.9357C14.0753 17.7754 14.3297 17.7704 14.4897 17.9236C14.6497 18.077 14.6553 18.3314 14.5019 18.4914C14.4897 18.5039 13.2819 19.7667 11.9657 21.3501C11.3422 22.0995 10.7444 22.3195 10.2575 22.3195V22.3195ZM27.7325 18.9354C27.6553 18.9354 27.5772 18.9132 27.5085 18.8667C27.3244 18.7429 27.2757 18.4932 27.3997 18.3092C31.1407 12.7579 32.4538 6.05075 31.3291 4.61387C29.9135 2.80512 27.9144 1.86012 25.3878 1.80606C23.5169 1.76543 22.0297 2.24324 21.7869 2.32668L21.726 2.35137C21.4816 2.42824 21.2941 2.29418 21.2235 2.13762C21.1397 1.95231 21.2085 1.73324 21.3822 1.62793L21.4903 1.58356L21.485 1.58512L21.4907 1.58324C21.9035 1.43231 23.4132 0.979181 25.2835 1.00074C28.0794 1.03012 30.3888 2.10856 31.9619 4.11856C32.7063 5.06981 32.7078 7.26137 31.9666 10.1311C31.211 13.0567 29.7891 16.2014 28.066 18.7582C27.9885 18.8736 27.8616 18.9354 27.7325 18.9354V18.9354ZM27.9235 21.5051C27.2847 21.5051 26.7122 21.4154 26.3694 21.2098C26.0169 20.9989 25.9497 20.7117 25.941 20.5595C25.8447 18.8707 26.7766 18.5767 27.2519 18.4426C27.1857 18.3426 27.0913 18.2248 26.9941 18.1032C26.7169 17.757 26.3375 17.2826 26.045 16.5732C25.9994 16.4626 25.8557 16.2048 25.6894 15.9067C24.7885 14.2914 22.9141 10.9298 24.1182 9.20825C24.6757 8.41168 25.785 8.09825 27.42 8.27325C26.9391 6.80793 24.6485 2.22387 19.2141 2.13481C17.5794 2.10731 16.2388 2.61012 15.2316 3.62699C12.9763 5.90481 13.0582 10.0261 13.0591 10.067C13.065 10.2889 12.8897 10.4732 12.6682 10.4789C12.4463 10.4857 12.2619 10.3098 12.2563 10.0879C12.2513 9.90512 12.1669 5.58043 14.661 3.06168C15.8282 1.88293 17.3644 1.30106 19.2272 1.33137C22.7047 1.38856 24.9425 3.15606 26.2078 4.62918C27.5866 6.23418 28.2628 8.00481 28.3185 8.59543C28.36 9.03481 28.0447 9.12293 27.981 9.13575L27.8363 9.13918C26.2316 8.88231 25.2022 9.06043 24.7766 9.66887C23.8607 10.9776 25.6338 14.1573 26.391 15.5154C26.5844 15.8617 26.7238 16.112 26.7875 16.2667C27.0363 16.8698 27.3607 17.2751 27.6213 17.6007C27.8503 17.8873 28.0491 18.1354 28.1203 18.4273C28.1532 18.4851 28.6213 19.177 31.3978 18.6039C32.0938 18.4604 32.511 18.5832 32.6385 18.9689C32.8894 19.7279 31.4816 20.6129 30.7022 20.9751C30.0028 21.2998 28.8882 21.5051 27.9235 21.5051V21.5051ZM26.7419 20.4932C26.8297 20.5823 27.2703 20.7354 28.1832 20.6964C28.9944 20.6614 29.8503 20.4848 30.3641 20.2467C31.021 19.9417 31.4591 19.6007 31.6863 19.3679L31.56 19.3911C29.7847 19.7576 28.5291 19.7089 27.8282 19.2457C27.7778 19.2129 27.7332 19.1786 27.6922 19.1448C27.6163 19.1748 27.546 19.1945 27.496 19.2086C27.0982 19.3201 26.6869 19.4354 26.7419 20.4932V20.4932ZM15.2741 22.7367C14.8332 22.7367 14.3691 22.677 13.895 22.5579C13.4041 22.4351 12.576 22.0654 12.5888 21.4582C12.6028 20.7767 13.5938 20.5723 13.9672 20.4954C15.3147 20.2179 15.4025 20.1067 15.8238 19.572C15.9466 19.4161 16.0994 19.222 16.3075 18.9892C16.6169 18.6433 16.955 18.4676 17.3125 18.4676C17.5613 18.4676 17.7657 18.5523 17.9003 18.6079C18.3303 18.7861 18.6891 19.2167 18.8366 19.7323C18.9697 20.1973 18.9063 20.6448 18.6578 20.9923C17.8428 22.1339 16.6728 22.7367 15.2741 22.7367V22.7367ZM13.4563 21.4929C13.5775 21.5864 13.82 21.7114 14.0897 21.7792C14.5003 21.8817 14.8985 21.9339 15.2741 21.9339C16.4185 21.9339 17.3369 21.4598 18.0044 20.5258C18.1435 20.3308 18.1019 20.0836 18.0647 19.9533C17.9866 19.6808 17.7928 19.4329 17.5932 19.3498C17.4847 19.3048 17.395 19.2704 17.3125 19.2704C17.2682 19.2704 17.1335 19.2704 16.9063 19.5245C16.7144 19.7389 16.5766 19.9139 16.4544 20.0686C15.93 20.7345 15.6897 20.9604 14.1291 21.282C13.7485 21.3608 13.5532 21.4401 13.4563 21.4929ZM16.5444 19.6404C16.3494 19.6404 16.1785 19.4982 16.1478 19.2998C16.1375 19.2332 16.131 19.1661 16.1278 19.0986C15.1047 19.0792 14.1178 18.6404 13.3688 17.8586C12.4216 16.8701 11.9903 15.5007 12.186 14.1017C12.3985 12.5823 12.3191 11.2411 12.2763 10.5204C12.2644 10.3201 12.256 10.1754 12.2566 10.0751C12.2572 9.94825 12.2597 9.61106 13.3863 9.04012C13.7869 8.837 14.5903 8.48262 15.4678 8.39168C16.9222 8.24168 17.8807 8.88918 18.1675 10.2154C18.9419 13.7967 18.2288 15.3807 17.7082 16.5373C17.611 16.7523 17.5194 16.9561 17.4463 17.1529L17.3816 17.327C17.1066 18.0645 16.8688 18.7017 16.9419 19.1779C16.9753 19.3973 16.825 19.602 16.606 19.6361L16.5444 19.6404V19.6404ZM13.0622 10.1861L13.0782 10.4729C13.1225 11.2214 13.205 12.6145 12.9813 14.2132C12.82 15.367 13.1725 16.4936 13.9485 17.3032C14.5616 17.9432 15.3691 18.2964 16.1988 18.2964H16.216C16.3091 17.9048 16.4632 17.4917 16.6291 17.0464L16.6935 16.8736C16.7763 16.6511 16.8732 16.4357 16.9757 16.2079C17.4769 15.0942 18.1007 13.7079 17.3822 10.3851C17.2397 9.72731 16.8947 9.34637 16.3275 9.22075C15.1625 8.96325 13.4266 9.8395 13.0622 10.1861V10.1861ZM15.486 10.0157C15.466 10.1576 15.7463 10.5367 16.1113 10.5873C16.476 10.6382 16.7882 10.342 16.8078 10.2001C16.8275 10.0579 16.5475 9.90168 16.1822 9.85075C15.8175 9.79981 15.5053 9.87356 15.486 10.0157V10.0157ZM16.1953 10.7273L16.0928 10.7201C15.8663 10.6886 15.6372 10.5457 15.4807 10.3379C15.4257 10.2651 15.3357 10.1232 15.3535 9.997C15.3791 9.81168 15.6047 9.70106 15.9575 9.70106C16.0366 9.70106 16.1185 9.707 16.2013 9.71825C16.3938 9.74512 16.5728 9.80075 16.705 9.8745C16.9341 10.0026 16.951 10.1451 16.9407 10.2192C16.9122 10.4232 16.5866 10.7273 16.1953 10.7273V10.7273ZM15.6191 10.0395C15.6307 10.127 15.8472 10.4161 16.1297 10.4551L16.195 10.4598C16.4557 10.4598 16.6507 10.2545 16.6735 10.1873C16.6494 10.1417 16.4819 10.0276 16.1638 9.98387C16.0935 9.97387 16.0238 9.96887 15.9572 9.96887C15.7535 9.96856 15.6444 10.0145 15.6191 10.0395V10.0395ZM26.5944 9.72606C26.6141 9.86825 26.3344 10.2473 25.9691 10.2979C25.6041 10.3486 25.2919 10.0526 25.2719 9.91043C25.2525 9.76856 25.5325 9.612 25.8975 9.56137C26.2625 9.51012 26.5744 9.5845 26.5944 9.72606ZM25.885 10.3704C25.5335 10.3704 25.2307 10.097 25.2057 9.91981C25.1769 9.707 25.5272 9.54512 25.8885 9.49512C25.9678 9.48387 26.0466 9.47825 26.1225 9.47825C26.4341 9.47825 26.6403 9.56981 26.661 9.717C26.6744 9.81262 26.6013 9.95981 26.475 10.0923C26.3919 10.1798 26.2169 10.3314 25.9788 10.3642L25.885 10.3704ZM26.1222 9.612C26.0525 9.612 25.98 9.61731 25.9066 9.62731C25.5435 9.67762 25.3275 9.82356 25.3378 9.90168C25.35 9.98731 25.5816 10.2367 25.8847 10.2367L25.9594 10.2314C26.1575 10.2036 26.3063 10.0745 26.3772 9.99981C26.4885 9.88262 26.5328 9.77262 26.5275 9.73481C26.521 9.68575 26.3872 9.612 26.1222 9.612V9.612ZM27.1203 17.8786C27.0435 17.8786 26.966 17.8567 26.8972 17.8107C26.7128 17.687 26.6635 17.4379 26.7869 17.2536C27.6419 15.9764 27.4853 14.6736 27.3341 13.4142C27.2694 12.8773 27.2028 12.3226 27.2203 11.7898C27.2378 11.242 27.3072 10.7901 27.3747 10.3526C27.4544 9.83481 27.5297 9.34512 27.4985 8.7645C27.4863 8.54325 27.6563 8.35418 27.8778 8.34168C28.1 8.32981 28.2885 8.49981 28.3007 8.72137C28.3363 9.38512 28.251 9.93887 28.1685 10.4748C28.1047 10.8882 28.0388 11.3157 28.0228 11.8154C28.0075 12.287 28.0678 12.7879 28.1316 13.3179C28.2928 14.6576 28.475 16.1761 27.4544 17.7001C27.3769 17.8157 27.2497 17.8786 27.1203 17.8786Z" fill="white"/>
<path d="M0 31.2055C0.341563 31.1486 0.788125 31.0999 1.35719 31.0999C2.05563 31.0999 2.56781 31.2624 2.89281 31.5549C3.19344 31.8149 3.37219 32.213 3.37219 32.7008C3.37219 33.1964 3.22563 33.5864 2.94938 33.8708C2.57563 34.2689 1.96625 34.472 1.27563 34.472C1.06438 34.472 0.869375 34.4639 0.707188 34.4233V36.6174H0V31.2055ZM0.707188 33.8461C0.861563 33.8867 1.05656 33.903 1.29219 33.903C2.145 33.903 2.66531 33.4886 2.66531 32.733C2.66531 32.0099 2.15344 31.6605 1.37344 31.6605C1.06469 31.6605 0.829063 31.6849 0.707188 31.7174V33.8461ZM7.65407 34.618C7.65407 36.0724 6.64625 36.7064 5.69563 36.7064C4.63125 36.7064 3.81063 35.9264 3.81063 34.683C3.81063 33.3667 4.67188 32.5949 5.76063 32.5949C6.89031 32.5945 7.65407 33.4155 7.65407 34.618ZM4.53406 34.6586C4.53406 35.5199 5.02969 36.1699 5.72844 36.1699C6.41094 36.1699 6.9225 35.528 6.9225 34.6424C6.9225 33.9761 6.58969 33.1311 5.74438 33.1311C4.89906 33.1311 4.53406 33.9111 4.53406 34.6586ZM8.45813 35.8855C8.66938 36.0236 9.04313 36.1699 9.40063 36.1699C9.92063 36.1699 10.1644 35.9099 10.1644 35.5849C10.1644 35.2436 9.96157 35.0567 9.43313 34.8617C8.72625 34.6099 8.39313 34.2199 8.39313 33.7486C8.39313 33.1149 8.905 32.5949 9.75 32.5949C10.1481 32.5949 10.4978 32.7086 10.7172 32.8386L10.5384 33.3586C10.3841 33.2611 10.0997 33.1311 9.73407 33.1311C9.31157 33.1311 9.07594 33.3749 9.07594 33.6674C9.07594 33.9924 9.31188 34.1386 9.82375 34.3336C10.5063 34.5936 10.8556 34.9349 10.8556 35.5199C10.8556 36.2105 10.3194 36.698 9.385 36.698C8.95438 36.698 8.55625 36.5924 8.28 36.4299L8.45813 35.8855ZM12.6347 31.5545V32.6839H13.6581V33.2283H12.6347V35.3489C12.6347 35.8364 12.7725 36.1127 13.1709 36.1127C13.3578 36.1127 13.4959 36.0883 13.5853 36.0639L13.6178 36.6002C13.48 36.657 13.2603 36.6977 12.9844 36.6977C12.6513 36.6977 12.3828 36.592 12.2122 36.397C12.0094 36.1858 11.9359 35.8364 11.9359 35.3733V33.2283H11.3266V32.6839H11.9359V31.7414L12.6347 31.5545ZM17.8022 32.6842C17.7856 32.9686 17.7697 33.2855 17.7697 33.7649V36.048C17.7697 36.9499 17.5909 37.5024 17.2091 37.8439C16.8272 38.2014 16.2747 38.3152 15.7791 38.3152C15.3078 38.3152 14.7878 38.2014 14.4706 37.9902L14.6494 37.4458C14.9094 37.6083 15.3156 37.7545 15.8031 37.7545C16.5344 37.7545 17.0706 37.3727 17.0706 36.3814V35.9427H17.0544C16.835 36.3083 16.4125 36.6008 15.8031 36.6008C14.8281 36.6008 14.1294 35.772 14.1294 34.683C14.1294 33.3505 14.9988 32.5949 15.9006 32.5949C16.5834 32.5949 16.9572 32.9524 17.1278 33.2774H17.1441L17.1766 32.6842H17.8022ZM17.0628 34.2361C17.0628 34.1142 17.0547 34.0086 17.0222 33.9111C16.8922 33.4967 16.5428 33.1555 16.0228 33.1555C15.34 33.1555 14.8528 33.7324 14.8528 34.6424C14.8528 35.4142 15.2428 36.0561 16.0147 36.0561C16.4534 36.0561 16.8516 35.7799 17.0059 35.3249C17.0466 35.203 17.0631 35.0649 17.0631 34.943V34.2361H17.0628ZM18.9069 33.9111C18.9069 33.448 18.8988 33.0499 18.8744 32.6842H19.5003L19.5244 33.4561H19.5569C19.7356 32.928 20.1663 32.5949 20.6456 32.5949C20.7269 32.5949 20.7834 32.603 20.8484 32.6192V33.2936C20.7756 33.2774 20.7022 33.2692 20.605 33.2692C20.1013 33.2692 19.7434 33.6511 19.6463 34.1874C19.63 34.2849 19.6138 34.3986 19.6138 34.5205V36.6167H18.9069V33.9111ZM21.8809 34.7805C21.8972 35.7474 22.5144 36.1455 23.2294 36.1455C23.7416 36.1455 24.05 36.0561 24.3181 35.9424L24.44 36.4542C24.1881 36.568 23.7575 36.698 23.1319 36.698C21.9213 36.698 21.1981 35.9017 21.1981 34.7155C21.1981 33.5292 21.8969 32.5945 23.0425 32.5945C24.3263 32.5945 24.6675 33.7239 24.6675 34.447C24.6675 34.5933 24.6513 34.707 24.6431 34.7802H21.8809V34.7805ZM23.9772 34.2686C23.985 33.8136 23.79 33.1067 22.9859 33.1067C22.2628 33.1067 21.9459 33.773 21.8888 34.2686H23.9772Z" fill="white"/>
<path d="M25.48 35.7554C25.7969 35.9504 26.26 36.1129 26.7475 36.1129C27.4707 36.1129 27.8932 35.731 27.8932 35.1785C27.8932 34.6667 27.6007 34.3742 26.8613 34.0898C25.9675 33.7729 25.415 33.3098 25.415 32.5379C25.415 31.6848 26.1219 31.051 27.1863 31.051C27.7469 31.051 28.1532 31.181 28.3969 31.3191L28.2019 31.896C28.0232 31.7985 27.6575 31.636 27.1619 31.636C26.4144 31.636 26.13 32.0829 26.13 32.4567C26.13 32.9685 26.4628 33.2204 27.2188 33.5129C28.145 33.8707 28.6163 34.3173 28.6163 35.1217C28.6163 35.9667 27.9907 36.6979 26.6988 36.6979C26.1707 36.6979 25.5938 36.5435 25.301 36.3485L25.48 35.7554ZM34.1007 37.421C33.3613 37.226 32.6382 37.0066 32.0044 36.7873C31.8907 36.7466 31.7769 36.706 31.6713 36.706C30.3713 36.6573 29.2582 35.6985 29.2582 33.9354C29.2582 32.1804 30.3307 31.051 31.8094 31.051C33.2963 31.051 34.2635 32.2048 34.2635 33.8216C34.2635 35.2273 33.6135 36.1292 32.7035 36.446V36.4785C33.2478 36.6166 33.841 36.7467 34.3041 36.8279L34.1007 37.421ZM33.5157 33.8542C33.5157 32.7573 32.9472 31.6276 31.785 31.6276C30.5907 31.6276 30.0057 32.7326 30.0138 33.9191C30.0057 35.081 30.6475 36.1292 31.7525 36.1292C32.8822 36.1292 33.5157 35.1054 33.5157 33.8542ZM35.181 31.1404H35.8882V36.0235H38.2281V36.6167H35.181V31.1404Z" fill="white"/>
</svg>
