<svg width="70" height="70" viewBox="0 0 717 283" fill="none" xmlns="http://www.w3.org/2000/svg">
<path d="M426.617 3.07921C425.594 1.18555 423.57 0 421.361 0H136.497C134.287 0 132.263 1.18548 131.24 3.07921L0.677787 244.483C-0.286599 246.264 -0.217713 248.404 0.857946 250.128C1.93361 251.847 3.85702 252.899 5.93422 252.899H447.351L450.525 277.441C450.885 280.325 453.413 282.49 456.412 282.485C457.027 282.48 457.636 282.388 458.224 282.213L553.729 252.627C555.399 252.109 556.745 250.903 557.407 249.327C558.074 247.757 557.984 245.981 557.168 244.478L426.617 3.07921ZM415.426 241.409H300.606L415.426 29.118V241.409ZM461.419 269.157L431.332 36.5683L543.391 243.762L461.419 269.157Z" fill="rgba(255, 255, 255, 87%)"/>
<path d="M685.572 204.987C704.949 190.838 716.368 168.716 716.432 145.211V143.6C716.437 139.515 715.113 135.532 712.643 132.217C710.18 128.902 706.698 126.428 702.692 125.135L692.264 121.774C690.002 121.04 688.174 119.393 687.262 117.258C686.345 115.123 686.436 112.706 687.501 110.637C689.392 106.989 690.044 102.852 689.366 98.8188C688.688 94.7851 686.716 91.0645 683.733 88.1803C674.243 79.0249 668.918 66.5807 668.954 53.6073V41.7527C668.954 39.428 667.508 37.329 665.293 36.436C663.073 35.5482 660.519 36.0409 658.823 37.6882L629.95 65.6517V65.6465C624.508 70.8913 621.456 78.0298 621.477 85.466C621.493 91.732 617.837 97.4643 612.04 100.251C607.732 102.319 604.108 105.516 601.58 109.478C599.053 113.44 597.723 118.007 597.739 122.667C597.749 123.047 597.543 123.401 597.203 123.586C596.88 123.801 596.462 123.817 596.123 123.627L582.589 117.073V117.078C580.751 116.191 578.568 116.288 576.819 117.335C575.07 118.382 574.005 120.229 574 122.221V155.312C574.005 167.171 577.375 178.806 583.745 188.931C590.114 199.061 599.233 207.302 610.112 212.748L587.752 232.977H587.757C586.538 234.004 585.807 235.461 585.722 237.021C585.637 238.576 586.215 240.1 587.312 241.24C588.414 242.379 589.945 243.041 591.556 243.061C593.167 243.087 594.719 242.476 595.854 241.373L622.321 217.448C623.54 217.776 624.785 218.079 626.031 218.351L621.596 239.13C620.939 242.234 623.005 245.267 626.211 245.909C626.608 245.996 627.011 246.037 627.414 246.042C630.233 246.042 632.665 244.118 633.232 241.444L637.831 219.859C638.795 219.9 639.76 219.931 640.724 219.931C647.136 219.916 653.521 219.084 659.715 217.457L682.415 241.095C683.538 242.259 685.112 242.922 686.76 242.922C688.259 242.927 689.701 242.378 690.797 241.382C693.198 239.221 693.336 235.583 691.105 233.253L671.802 213.167L671.807 213.162C676.253 211.135 680.481 208.676 684.418 205.818L685.572 204.987ZM671.137 180.201L665.441 182.684H665.436C662.972 183.762 660.423 184.65 657.811 185.343L667.068 176.967C668.287 175.941 669.018 174.484 669.103 172.929C669.187 171.369 668.61 169.844 667.513 168.705C666.411 167.566 664.88 166.909 663.269 166.883C661.658 166.858 660.105 167.468 658.971 168.577L646.318 180.016L651.034 157.872C651.696 154.762 649.63 151.719 646.419 151.073C643.207 150.431 640.065 152.433 639.398 155.542L635.227 175.115L624.826 164.281H624.831C622.595 161.957 618.833 161.823 616.433 163.994C614.032 166.16 613.9 169.798 616.136 172.123L628.927 185.414C628.906 185.419 628.885 185.414 628.864 185.404C621.768 183.459 615.834 178.722 612.516 172.338C610.609 168.71 609.613 164.702 609.607 160.627V152.35V152.355C618.282 153.047 626.813 149.917 632.837 143.836C638.857 137.749 641.729 129.363 640.648 120.999C639.927 115.425 641.469 109.801 644.951 105.306L648.543 100.692L652.565 115.507H652.559C655.908 127.757 661.975 139.145 670.332 148.89C670.438 149.018 670.571 149.147 670.687 149.28L675.986 154.412V154.407C679.817 158.102 681.529 163.388 680.559 168.54C679.589 173.688 676.065 178.05 671.137 180.201Z" fill="#BF7D19"/>
</svg>
