<svg width="30" height="30" viewBox="0 0 700 700" fill="none" xmlns="http://www.w3.org/2000/svg">
<path fill-rule="evenodd" clip-rule="evenodd" d="M78.809 187.75C85.7621 150.664 146.028 155.301 183.109 162.254C215.558 169.207 238.738 197.024 238.738 229.473L220.195 199.34C185.425 141.395 97.345 194.703 132.117 252.652C155.297 292.054 180.793 333.777 203.972 373.182C210.925 384.772 210.925 387.088 208.609 394.041L338.409 435.764C391.721 451.991 370.858 558.614 303.639 558.614H37.0887C-11.5873 558.614 -11.5873 484.442 37.0887 484.442H76.4907C67.2173 470.536 37.0887 454.309 39.4047 405.633C55.6317 315.235 62.5847 278.153 78.8067 187.753L78.809 187.75ZM600.329 458.94C540.063 463.577 516.884 496.026 530.794 556.292C509.935 544.702 498.345 521.522 500.661 496.026C505.298 447.35 567.88 435.76 604.961 394.036C630.457 412.579 644.363 440.395 649 472.845C651.316 502.978 642.047 533.111 621.184 556.29C625.821 512.251 618.868 479.802 600.325 458.938L600.329 458.94ZM528.474 259.6C572.513 308.276 516.884 317.545 509.931 338.409C491.388 296.686 540.064 294.37 528.474 259.6ZM486.751 384.76C558.606 361.58 588.741 319.858 579.466 259.6C676.818 305.959 723.176 419.53 686.086 519.2C697.676 454.298 667.543 384.76 609.598 349.99C595.692 433.435 449.668 421.845 482.118 530.78C451.985 509.921 433.442 475.151 435.759 438.065C435.759 400.979 454.302 368.53 486.751 349.987C484.435 363.893 484.435 375.483 486.751 384.757V384.76ZM215.561 2.31C257.284 2.31 292.049 37.08 292.049 78.798C292.049 120.521 257.279 155.286 215.561 155.286C173.838 155.286 139.073 120.516 139.073 78.798C139.073 37.075 173.843 2.31 215.561 2.31ZM143.706 245.69C118.21 203.967 183.108 164.565 208.608 206.288L271.19 312.908L400.99 322.181C449.666 326.818 445.029 400.99 396.353 396.353L248.013 387.08C234.107 384.764 222.517 377.807 217.88 366.221C192.384 326.819 169.204 285.096 143.708 245.691L143.706 245.69Z" fill="black"/>
</svg>
