<svg width="30" height="50" viewBox="0 0 38 42" fill="none" xmlns="http://www.w3.org/2000/svg">
<path d="M33.8076 21.7825C33.5634 21.5034 33.3056 21.2235 33.0344 20.9428C33.2238 20.7437 33.4072 20.5447 33.5844 20.3459C36.9298 16.587 38.3418 12.8174 37.0335 10.5511C35.779 8.37815 32.0472 7.73061 27.3753 8.639C26.9151 8.72903 26.4575 8.83059 26.0024 8.94367C25.9153 8.64334 25.8226 8.34472 25.7244 8.04784C24.1396 3.27173 21.5794 0.165042 18.9626 0.166688C16.4534 0.167833 14.0283 3.07729 12.4812 7.57815C12.329 8.02216 12.1882 8.46988 12.0588 8.9213C11.7545 8.84664 11.449 8.77768 11.1421 8.71442C6.21298 7.70238 2.24284 8.36892 0.937068 10.6365C-0.315015 12.811 0.994423 16.3653 4.12146 19.9534C4.43159 20.3084 4.75049 20.6555 5.07817 20.9946C4.69188 21.3925 4.32609 21.7902 3.98515 22.1856C0.933902 25.7231 -0.300661 29.2193 0.949401 31.3844C2.24042 33.6208 6.15469 34.3518 10.919 33.4143C11.3051 33.3378 11.6891 33.2517 12.0709 33.156C12.2108 33.6443 12.3642 34.1283 12.5312 34.6081C14.0715 39.0186 16.483 41.8344 18.9833 41.8335C21.5655 41.832 24.154 38.8067 25.7223 34.2111C25.8462 33.8479 25.9634 33.4708 26.0746 33.0824C26.5678 33.2052 27.0642 33.314 27.5638 33.4091C32.1542 34.2776 35.7982 33.5945 37.046 31.4279C38.3345 29.1898 37.006 25.4361 33.8076 21.7825ZM2.47955 11.5247C3.28342 10.1289 6.52796 9.58429 10.7839 10.458C11.0559 10.514 11.3325 10.5765 11.6138 10.6455C11.1983 12.4836 10.9051 14.3472 10.7362 16.224C9.20059 17.3043 7.73649 18.4829 6.35311 19.7523C6.04832 19.4371 5.75166 19.1143 5.46315 18.7838L5.46327 18.7839C2.78396 15.7095 1.72498 12.835 2.47955 11.5247ZM10.5768 23.4582C9.51309 22.6528 8.52457 21.8277 7.62736 20.9978C8.52394 20.1731 9.51309 19.3507 10.5746 18.5475C10.5364 19.3657 10.5175 20.1846 10.5179 21.0042C10.5184 21.8225 10.5381 22.6405 10.5768 23.4582ZM10.5755 31.6678C8.76978 32.0693 6.9056 32.1351 5.07609 31.8619C4.57456 31.8228 4.08637 31.6813 3.64168 31.4461C3.19699 31.211 2.80525 30.8871 2.49067 30.4945C1.73219 29.1807 2.7235 26.3737 5.333 23.3482C5.66107 22.9691 5.9999 22.5998 6.34948 22.2404C7.73308 23.5165 9.19955 24.6997 10.7393 25.7823C10.9106 27.6831 11.2072 29.5705 11.6273 31.4323C11.2787 31.5194 10.9281 31.5979 10.5755 31.6678ZM25.3695 14.9192C24.6708 14.4789 23.9634 14.0527 23.2474 13.6407C22.5428 13.2352 21.8298 12.8448 21.1082 12.4697C22.3436 11.9503 23.558 11.5066 24.7304 11.1451C25.0068 12.3916 25.2201 13.6512 25.3695 14.9192ZM14.1646 8.15671C15.49 4.30017 17.4513 1.94727 18.9636 1.94663C20.5741 1.94586 22.6667 4.48467 24.0351 8.60836C24.124 8.87718 24.208 9.14751 24.2872 9.41936C22.4895 9.97693 20.7307 10.6528 19.0222 11.4427C17.3209 10.6436 15.5677 9.9601 13.7743 9.39698C13.8942 8.98043 14.0243 8.567 14.1646 8.15671ZM13.3305 11.1229C14.5533 11.5079 15.756 11.9543 16.9339 12.4604C15.4744 13.2136 14.0527 14.0341 12.6686 14.9217C12.8358 13.5925 13.0583 12.319 13.3305 11.1229ZM12.6716 27.0827C13.3619 27.5245 14.0622 27.95 14.7725 28.3592C15.4972 28.7764 16.2315 29.1761 16.9754 29.5583C15.7885 30.0819 14.5755 30.5443 13.3411 30.9436C13.0658 29.7309 12.8409 28.435 12.6716 27.0827ZM24.0377 33.6358C23.4834 35.4007 22.6091 37.0485 21.4583 38.4968L21.4582 38.4969C21.1738 38.9118 20.8074 39.2639 20.3815 39.5316C19.9557 39.7993 19.4795 39.9768 18.9823 40.0532C17.4652 40.054 15.5289 37.7927 14.2117 34.021C14.0565 33.575 13.9138 33.125 13.7835 32.671C15.5854 32.0897 17.3458 31.3869 19.0526 30.5674C20.7751 31.3624 22.5479 32.0434 24.3596 32.606C24.2607 32.9518 24.1534 33.2951 24.0377 33.6358ZM24.7923 30.8771C23.6065 30.5104 22.3745 30.0593 21.1212 29.5322C21.8277 29.1604 22.5393 28.7678 23.256 28.3543C23.9915 27.9296 24.7083 27.4942 25.4062 27.0482C25.2672 28.3342 25.0623 29.6122 24.7923 30.8771V30.8771ZM25.7221 20.9965C25.7236 22.2617 25.6841 23.5259 25.6036 24.789C24.5772 25.4837 23.4936 26.162 22.3661 26.8129C21.2433 27.4611 20.1308 28.0568 19.0396 28.596C17.8912 28.0457 16.765 27.4526 15.6609 26.8168C14.563 26.1849 13.4903 25.512 12.4428 24.7981C12.3471 23.5353 12.2988 22.2702 12.2981 21.0028L12.2984 21.0032C12.2975 19.7367 12.3447 18.4716 12.4399 17.2077C13.466 16.5069 14.5418 15.8292 15.654 15.1871C16.7714 14.5419 17.8978 13.9487 19.018 13.4111C20.1522 13.9623 21.2659 14.553 22.3592 15.1833C23.4564 15.8138 24.5321 16.4796 25.5863 17.1805C25.6769 18.4505 25.7222 19.7225 25.7222 20.9965H25.7221ZM27.7153 10.3864C31.7181 9.60782 34.7361 10.1316 35.4922 11.441C36.2976 12.8361 35.1433 15.9171 32.255 19.1626L32.2549 19.1627C32.0953 19.3418 31.9298 19.5216 31.7582 19.7021C30.3509 18.43 28.8586 17.2551 27.2916 16.1858C27.1335 14.3294 26.8513 12.4858 26.4469 10.6671C26.8779 10.5611 27.3007 10.4675 27.7153 10.3864ZM27.4447 18.4795C28.5016 19.2512 29.5178 20.0772 30.4892 20.9542C29.5221 21.8456 28.5091 22.6858 27.4544 23.4715C27.4867 22.6466 27.5026 21.8213 27.502 20.9956C27.5017 20.1567 27.4826 19.318 27.4447 18.4795ZM35.5032 30.5394C34.746 31.8544 31.8202 32.4027 27.8945 31.6599C27.4446 31.575 26.983 31.4739 26.5096 31.3567C26.9042 29.5147 27.1739 27.6481 27.3168 25.7697C28.8811 24.6816 30.3687 23.4872 31.769 22.1949C32.0141 22.4495 32.2472 22.7029 32.4683 22.9551V22.9549C33.7205 24.3165 34.7114 25.8969 35.3913 27.6173C35.6088 28.0708 35.7309 28.5641 35.7502 29.0668C35.7694 29.5694 35.6854 30.0706 35.5032 30.5394ZM17.1312 17.7457C16.4939 18.1136 15.98 18.6623 15.6545 19.3223C15.329 19.9823 15.2066 20.724 15.3026 21.4536C15.3987 22.1832 15.709 22.8679 16.1942 23.4212C16.6794 23.9744 17.3178 24.3714 18.0286 24.5618C18.7394 24.7523 19.4907 24.7277 20.1876 24.4911C20.8844 24.2545 21.4954 23.8167 21.9434 23.2328C22.3914 22.649 22.6561 21.9454 22.7042 21.2111C22.7523 20.4768 22.5816 19.7447 22.2136 19.1074C21.7202 18.2529 20.9075 17.6294 19.9544 17.3741C19.0013 17.1187 17.9858 17.2524 17.1312 17.7457L17.1312 17.7457Z" fill="white"/>
</svg>
